<?xml version="1.0" encoding="UTF-8" standalone="no"?>
<svg
   width="1280"
   height="640"
   viewBox="0 0 1280 640"
   version="1.1"
   id="svg79"
   sodipodi:docname="upyo-og.svg"
   inkscape:version="1.4.2 (ebf0e940, 2025-05-08)"
   inkscape:export-filename="upyo-og.png"
   inkscape:export-xdpi="96"
   inkscape:export-ydpi="96"
   xmlns:inkscape="http://www.inkscape.org/namespaces/inkscape"
   xmlns:sodipodi="http://sodipodi.sourceforge.net/DTD/sodipodi-0.dtd"
   xmlns="http://www.w3.org/2000/svg"
   xmlns:svg="http://www.w3.org/2000/svg">
  <defs
     id="defs79" />
  <sodipodi:namedview
     id="namedview79"
     pagecolor="#ffffff"
     bordercolor="#000000"
     borderopacity="0.25"
     inkscape:showpageshadow="2"
     inkscape:pageopacity="0.0"
     inkscape:pagecheckerboard="0"
     inkscape:deskcolor="#d1d1d1"
     inkscape:zoom="0.99989318"
     inkscape:cx="634.56778"
     inkscape:cy="564.56031"
     inkscape:window-width="2320"
     inkscape:window-height="1480"
     inkscape:window-x="2240"
     inkscape:window-y="25"
     inkscape:window-maximized="0"
     inkscape:current-layer="svg79"
     inkscape:export-bgcolor="#ffffffff" />
  <g
     id="g1"
     transform="matrix(0.41297277,0.09113104,-0.09113104,0.41297277,804.34249,61.762214)">
    <path
       fill="#3c1110"
       d="m 280.857,27.389 48.164,0.1168 c 10.787,10.1137 21.792,24.2516 36.984,27.6286 14.025,3.1178 27.327,-6.1202 36.904,-15.412 4.027,-3.9068 7.92,-8.8184 12.659,-11.7866 0.149,-0.0932 0.301,-0.1802 0.452,-0.2702 16.448,-0.6941 33.113,-0.1723 49.586,-0.1928 12.787,9.1877 21.939,25.0366 39.102,27.7854 22.105,3.5406 34.006,-17.1743 48.772,-27.4196 0.142,-0.0986 0.287,-0.193 0.431,-0.2895 15.669,-0.3907 31.428,-0.0475 47.107,-0.0193 12.122,10.0232 22.583,24.9576 39.205,27.7713 14.26,2.4137 27.067,-6.3621 37.057,-15.5282 4.258,-3.9067 8.421,-8.4519 13.153,-11.7435 0.16,-0.1109 0.322,-0.2172 0.483,-0.3258 15.23,-0.5417 31.014,-0.6302 46.236,0.0202 12.522,9.2709 21.902,25.4182 39.033,27.9651 15.307,2.2758 27.702,-7.3587 38.041,-17.3553 3.608,-3.4893 7.103,-7.4135 11.188,-10.3357 0.167,-0.1192 0.337,-0.2331 0.506,-0.3497 21.423,-0.7881 43.11,-0.1246 64.558,-0.0667 18.297,0.0494 36.797,-0.598 55.06,0.1124 1.712,0.0666 5.028,-0.0329 6.473,0.9255 1.76,1.1673 3.72,3.2385 3.874,5.4497 0.148,2.106 -1.179,3.9851 -2.695,5.2964 -3.116,2.6964 -7.675,4.3827 -11.335,6.2403 -8.155,4.1398 -16.944,9.5618 -23.094,16.442 -3.199,3.5793 -5.642,7.9997 -5.246,12.9414 1.025,12.8186 19.513,23.7358 29.735,28.8188 4.407,2.191 10.684,4.035 14.257,7.405 0.96,0.906 1.17,1.755 1.332,3.032 0.682,5.384 0.094,11.333 0.02,16.788 -0.089,6.515 0.101,13.025 0.217,19.538 0.049,2.775 0.643,7.18 -0.721,9.677 -2.148,3.93 -19.206,10.699 -24.058,13.599 -5.256,3.142 -10.261,6.822 -14.495,11.268 -4.05,4.253 -7.449,9.516 -7.123,15.626 0.677,12.708 20.647,24.771 30.708,29.721 4.197,2.065 10.995,3.906 14.21,7.184 0.923,0.941 1.231,2.334 1.391,3.622 0.698,5.624 0.007,11.953 -0.064,17.659 -0.086,6.996 0.215,13.984 0.201,20.977 -0.004,1.995 0.036,4.95 -1.192,6.622 -2.616,3.563 -15.664,8.52 -20.175,11.136 -6.104,3.538 -12.225,7.576 -17.228,12.592 -4.104,4.115 -7.511,9.194 -7.377,15.227 0.298,13.304 20.149,25.44 30.549,30.488 4.196,2.036 10.885,3.803 14.121,7.025 1.154,1.148 1.28,2.924 1.447,4.466 0.53,4.919 0.157,10.162 0.157,15.124 l -0.013,29.917 c -3.865,3.703 -9.344,5.536 -14.144,7.748 -10.529,4.854 -22.143,12.255 -28.7,22.076 -2.585,3.871 -4.056,8.214 -2.999,12.86 2.737,12.026 17.834,22.45 27.936,27.93 5.55,3.011 11.718,5.253 16.956,8.767 0.158,0.107 0.313,0.217 0.47,0.325 0.689,5.245 0.325,10.897 0.33,16.186 l -0.047,30.099 c -5.789,4.615 -13.87,6.836 -20.411,10.345 -11.502,6.172 -22.728,14.132 -26.661,27.127 3.453,15.348 17.406,25.995 30.824,32.61 5.072,2.501 10.733,4.456 15.438,7.587 0.152,0.101 0.301,0.207 0.452,0.311 1.386,8.832 0.495,19.113 0.474,28.097 -0.011,4.822 0.837,17.402 -0.706,21.455 -0.591,1.551 -2.627,2.701 -4.006,3.457 -3.428,1.881 -7.329,3.107 -10.883,4.771 -9.837,4.604 -20.997,11.995 -26.915,21.346 -2.47,3.902 -3.955,7.644 -2.741,12.238 3.087,11.688 18.32,21.439 28.281,26.614 4.476,2.324 9.345,4.006 13.686,6.563 1.445,0.851 2.635,1.649 2.959,3.373 1.263,6.711 0.41,18.111 0.429,25.488 0.011,4.088 0.876,17.817 -0.468,21.101 -1.103,2.693 -18.758,10.321 -22.53,12.702 -7.541,4.758 -15.533,11.075 -20.089,18.901 -2.229,3.828 -3.551,7.96 -2.283,12.351 3.31,11.469 18.924,21.353 28.895,26.344 5.093,2.55 10.609,4.351 15.507,7.263 0.17,0.101 0.337,0.206 0.506,0.31 0.396,5.036 0.892,43.917 -0.122,46.673 -0.644,1.753 -2.265,2.774 -3.796,3.696 -3.495,2.107 -7.537,3.553 -11.193,5.395 -10.088,5.084 -23.12,13.323 -28.268,23.844 -10.493,21.445 37.687,36.732 38.96,42.765 0.302,1.432 -0.285,2.964 -1.244,4.029 -3.06,3.396 -17.64,2.022 -22.753,2.059 -21.42,0.12 -42.84,0.127 -64.26,0.02 -13.618,-0.039 -27.291,0.143 -40.9,-0.301 -12.805,-9.882 -24.288,-27.696 -41.633,-29.571 -15.47,-1.673 -27.182,9.055 -37.229,19.327 -3.368,3.442 -6.576,7.222 -10.425,10.133 -0.174,0.132 -0.353,0.258 -0.529,0.387 -15.011,0.134 -30.023,0.027 -45.031,-0.32 -12.947,-9.329 -24.393,-26.74 -41.036,-29.352 -14.014,-2.199 -27.505,8.574 -36.908,17.743 -3.786,3.691 -7.49,8.122 -11.778,11.204 -0.126,0.091 -0.256,0.178 -0.385,0.267 -15.413,0.756 -31.066,0.346 -46.513,0.403 -3.033,-2.319 -5.705,-5.593 -8.397,-8.33 -8.735,-8.882 -20.367,-20.486 -33.53,-21.513 -19.141,-1.493 -33.233,17.928 -46.041,29.149 l -0.476,0.411 c -5.829,0.659 -12.031,0.276 -17.899,0.262 -10.566,0.04 -21.132,-0.062 -31.696,-0.305 -12.647,-10.422 -22.675,-26.131 -40.142,-29.068 -13.402,-2.253 -26.893,8.247 -35.811,17.131 -3.876,3.861 -7.724,8.734 -12.208,11.838 -0.15,0.105 -0.305,0.203 -0.457,0.304 -15.56,0.855 -31.66,0.398 -47.249,0.225 -3.741,-4.122 -7.518,-8.268 -11.509,-12.151 -8.681,-8.445 -20.971,-18.06 -33.788,-17.67 -17.372,0.528 -31.545,17.861 -42.356,29.62 l -0.889,0.063 c -7.046,0.458 -14.341,0.155 -21.409,0.167 l -40.672,0.007 -35.6625,-0.078 c -6.6622,-0.041 -13.6053,0.244 -20.2234,-0.438 -1.4742,-0.151 -2.6768,-0.686 -3.7497,-1.694 -1.1037,-1.037 -1.9025,-2.201 -1.8262,-3.791 0.299,-6.227 15.3223,-12.176 20.109,-15.19 4.0286,-2.536 7.9894,-5.404 11.2469,-8.899 3.5759,-3.837 6.4079,-8.729 6.0719,-14.138 -0.85,-13.707 -20.9386,-24.816 -31.7149,-29.883 -4.1808,-1.966 -10.1831,-3.557 -13.5275,-6.665 -1.1834,-1.1 -1.2134,-2.868 -1.2606,-4.396 -0.1531,-4.953 -0.0965,-40.304 0.7256,-42.311 0.5164,-1.261 1.6467,-2.055 2.7718,-2.734 2.9873,-1.803 6.6264,-2.885 9.8389,-4.279 4.4511,-1.935 8.7816,-4.135 12.968,-6.591 5.4031,-3.198 10.6439,-7.13 14.8337,-11.833 3.752,-4.211 6.244,-9.222 5.772,-14.987 -1.161,-14.184 -20.2468,-25.484 -31.659,-30.938 -4.1118,-1.965 -10.559,-3.628 -13.777,-6.739 -2.4547,-2.373 -1.4179,-36.672 -1.3428,-42.45 0.0272,-2.09 -0.1708,-4.997 1.2081,-6.673 3.2427,-3.942 15.3064,-7.906 20.3191,-10.623 6.2445,-3.384 12.2868,-7.386 17.3659,-12.383 4.3567,-4.285 8.0477,-9.476 7.9307,-15.857 -0.27,-14.745 -20.7644,-26.384 -32.3472,-31.665 -3.6141,-1.648 -10.8828,-3.504 -13.5586,-6.416 -1.6616,-1.808 -1.165,-43.728 -0.854,-49.156 3.6043,-2.475 7.9541,-4.048 11.9055,-5.912 10.0767,-4.754 20.7181,-10.506 28.3592,-18.797 3.9161,-4.249 7.1861,-9.615 6.7781,-15.604 -0.973,-14.257 -21.63,-25.735 -33.0205,-31.44 -4.4119,-2.21 -9.8819,-3.725 -13.6663,-6.932 -1.772,-3.924 -0.7858,-32.557 -0.69,-38.897 0.0296,-1.955 -0.1915,-5.487 0.704,-7.21 1.2462,-2.397 20.3444,-11.212 24.0788,-13.532 5.1951,-3.226 10.3081,-6.896 14.6839,-11.186 4.7281,-4.637 7.8971,-9.814 7.8711,-16.638 -0.052,-13.52 -21.5458,-25.412 -31.9455,-30.405 -4.7045,-2.259 -11.1271,-3.725 -14.8369,-7.371 -1.7606,-5.793 -0.6934,-17.388 -0.6607,-23.928 0.0245,-4.904 -0.7847,-20.538 0.8065,-23.896 2.6102,-5.51 38.7369,-16.23 45.4816,-34.708 9.093,-24.913 -43.4689,-40.366 -45.5078,-45.241 -1.6976,-4.058 -0.6158,-16.523 -0.575,-21.777 0.0329,-4.25 -0.534,-21.15 0.502,-23.764 2.2619,-5.707 38.0787,-16.533 45.4688,-34.473 10.351,-25.127 -43.234,-40.178 -45.5163,-46.466 -1.4131,-3.894 -0.5067,-18.801 -0.4898,-23.478 0.0111,-3.079 -0.6139,-20.829 0.3998,-22.754 3.2991,-6.264 36.426,-14.2013 44.8473,-31.4485 C 116.399,55.409 70.2895,43.5469 68.2699,35.1369 c -0.3764,-1.5673 0.2903,-3.9193 1.3186,-5.1285 2.8636,-3.3672 10.1586,-2.3172 14.2226,-2.255 L 193.826,27.5545 c 12.165,10.482 25.499,28.2967 43.155,28.5073 17.987,0.2145 32.242,-17.0178 43.876,-28.6728 z"
       id="path2" />
    <path
       fill="#faf8ec"
       d="m 420.251,38.5137 41.1,0.0217 c 2.265,2.8591 4.874,5.4984 7.489,8.0338 11.409,11.0628 25.188,21.2783 41.843,20.8697 19.602,-0.4811 34.272,-15.5042 46.885,-28.794 12.826,-0.0614 25.652,-0.0318 38.478,0.0887 2.34,2.3512 4.704,4.678 7.093,6.9803 12.33,11.7531 26.169,22.485 44.08,21.8794 19.227,-0.6501 34.531,-15.3265 46.813,-28.6396 12.953,-0.3672 25.951,-0.1385 38.908,-0.0821 l 3.238,3.2344 c 12.467,12.4188 26.506,25.884 45.319,25.7092 20.608,-0.1915 34.952,-15.2578 48.363,-28.9298 32.921,-0.3848 65.847,-0.2103 98.762,0.5233 -9.031,6.2045 -18.917,13.4549 -23.663,23.6709 -2.959,6.3704 -3.382,13.5561 -0.859,20.144 6.381,16.6623 27.613,27.6384 42.788,34.7514 0.562,12.258 0.125,24.72 0.032,36.996 -15.173,6.405 -34.062,16.377 -42.041,31.527 -3.478,6.602 -4.445,14.665 -2.055,21.784 5.734,17.081 28.987,29.826 44.183,37.355 l -0.022,34.327 c -15.12,5.984 -34.678,18.147 -42.307,33.151 -3.194,6.28 -4.052,13.183 -1.747,19.931 6.222,18.214 27.936,29.592 44.078,37.499 l 0.066,35.603 c -15.629,8.008 -34.397,18.28 -42.523,34.692 -3.119,6.3 -3.747,13.133 -1.383,19.798 6.489,18.303 27.356,30.022 43.801,37.919 -0.107,11.204 0.052,22.424 0.1,33.629 -15.805,7.799 -34.721,16.834 -42.786,33.609 -2.995,6.229 -3.421,12.796 -1.085,19.321 6.762,18.878 26.703,29.784 43.726,37.776 l 0.065,37.25 c -16.12,7.058 -33.392,16.799 -41.604,33.178 -3.102,6.186 -3.997,12.818 -1.61,19.416 6.515,18.01 27.027,28.88 43.292,36.428 l 0.081,35.797 c -15.887,7.853 -33.108,17.726 -41.446,34.117 -3.23,6.348 -4.182,13.145 -1.798,19.981 6.248,17.915 27.107,28.743 43.105,36.361 l -0.107,35.122 c -13.624,6.489 -27.991,14.083 -37.109,26.519 -4.392,5.988 -7.777,13.421 -6.452,21.005 2.076,11.884 11.857,20.842 21.25,27.402 l -95.149,0.323 c -0.514,-0.567 -1.035,-1.126 -1.565,-1.677 -12.28,-12.81 -27.216,-28.466 -46.232,-28.754 -19.851,-0.301 -32.601,13.086 -45.804,25.909 -2.929,2.845 -4.11,4.472 -8.42,4.421 -11.207,0.12 -22.415,0.121 -33.622,0.002 -3.935,-4.233 -8.006,-8.338 -12.206,-12.309 -10.344,-9.611 -23.294,-18.423 -38.035,-17.807 -19.521,0.817 -34.582,16.734 -46.964,30.129 -12.699,0.182 -25.423,-0.016 -38.127,0.073 -4.498,-5.152 -9.338,-9.995 -14.488,-14.496 -10.47,-9.052 -23.226,-16.674 -37.59,-15.471 -18.122,1.516 -33.69,16.9 -44.687,30.098 l -40.961,-0.375 c -4.645,-4.631 -9.293,-9.32 -14.204,-13.669 -10.768,-9.533 -23.047,-17.112 -37.986,-16.08 -17.987,1.242 -33.685,17.069 -44.763,29.987 -13.129,0.035 -26.26,-0.001 -39.389,-0.108 -4.193,-5.388 -9.598,-10.523 -14.789,-14.943 -10.488,-8.93 -23.678,-15.88 -37.851,-14.632 -18.505,1.629 -33.169,16.467 -44.47,29.93 l -92.1052,-0.106 c 7.3732,-5.684 15.7582,-12.088 19.8022,-20.739 3.115,-6.664 3.332,-13.848 0.597,-20.676 -6.918,-17.274 -27.5497,-27.014 -43.4873,-33.995 -0.3585,-11.681 -0.1192,-23.429 -0.1044,-35.119 15.5955,-6.807 34.9607,-15.98 42.9617,-32.01 3.341,-6.693 3.932,-14.281 1.478,-21.39 -6.337,-18.359 -28.0566,-29.111 -44.3535,-37.04 -0.2137,-12.083 -0.1409,-24.188 -0.2098,-36.274 15.9652,-6.937 33.8513,-15.579 42.6183,-31.573 3.57,-6.512 4.422,-13.982 2.166,-21.09 -5.976,-18.825 -28.3626,-29.247 -44.5543,-37.522 -0.1545,-11.767 -0.0568,-23.547 -0.0576,-35.316 15.2527,-7.852 34.3409,-16.703 42.6289,-32.573 3.413,-6.536 4.327,-14.107 1.964,-21.157 -6.256,-18.66 -28.2685,-29.664 -44.6586,-37.878 -0.316,-11.286 -0.0092,-22.667 0.021,-33.963 15.5598,-9.064 34.4656,-16.676 43.0376,-33.795 3.339,-6.532 3.886,-14.138 1.518,-21.081 -6.109,-17.876 -28.6783,-28.637 -44.4138,-36.438 -0.3852,-12.035 -0.1366,-24.148 -0.1284,-36.192 15.1771,-8.007 33.9642,-16.857 42.6232,-32.464 3.553,-6.405 4.602,-13.629 2.38,-20.686 -5.684,-18.057 -29.1246,-29.953 -45.0091,-37.974 -0.0481,-11.459 -0.0123,-22.918 0.1074,-34.377 14.8128,-7.951 35.7897,-18.567 43.4077,-34.21 3.13,-6.428 3.55,-13.183 1.17,-19.933 -6.178,-17.521 -28.7005,-29.437 -44.5704,-36.936 -0.344,-11.914 -0.3746,-24.093 0.1185,-36.002 13.1665,-6.024 27.9629,-13.749 37.5079,-24.801 5.397,-6.2482 9.017,-14.0512 8.193,-22.4824 C 116.565,56.19 104.396,47.3455 94.4114,39.0316 l 94.8956,-0.0933 8.033,7.8618 c 11.373,11.0486 24.587,21.2737 41.263,20.9011 20.111,-0.4494 33.982,-15.6034 46.93,-29.1028 12.673,-0.0314 25.346,0.0175 38.019,0.1466 13.144,13.4642 28.042,28.501 48.119,28.8978 21.258,0.4201 34.646,-15.5675 48.58,-29.1291 z"
       id="path3" />
    <path
       fill="#3c1110"
       d="m 164.369,96.5971 c 10.007,-0.3859 20.112,-0.1243 30.131,-0.1249 l 54.47,0.0064 165.701,0.1022 448.316,0.3762 0.015,579.396 -0.026,169.189 0.025,51.385 c 0.007,7.926 0.766,16.467 -0.132,24.303 -1.215,0.83 -2.303,0.597 -3.744,0.64 l -694.07,-0.275 c -1.935,-1.347 -3.083,-2.632 -4.396,-4.6 -0.478,-25.569 -0.205,-51.205 -0.197,-76.781 l 0.058,-132.93 -0.068,-396.549 0.013,-156.563 0.008,-38.685 c 0.002,-4.449 -0.767,-10.423 0.172,-14.658 0.483,-2.1805 1.983,-3.0756 3.724,-4.2319 z"
       id="path4" />
    <path
       fill="#faf8ec"
       d="m 173.427,106.748 679.162,0.296 -0.104,803.894 -215.491,0.382 -95.528,0.148 c -19.755,-0.013 -39.539,0.184 -59.284,-0.504 2.979,-2.969 6.612,-5.048 10.338,-6.933 7.783,-3.935 15.999,-7.221 23.986,-10.723 l 55.259,-23.816 c 69.237,-30.217 138.715,-59.879 208.426,-88.984 l 24.364,-10.18 c 4.312,-1.808 9.124,-3.408 13.106,-5.83 1.464,-0.89 1.92,-1.581 2.246,-3.259 0.725,-3.739 0.028,-8.117 -0.093,-11.935 -0.43,-13.595 0.135,-20.815 -7.47,-32.882 2.807,-4.884 5.495,-9.834 8.063,-14.848 4.264,1.301 8.099,2.595 12.43,0.586 2.09,-0.969 3.822,-2.672 4.612,-4.857 0.782,-2.161 0.567,-4.543 -0.408,-6.605 -2.088,-4.416 -5.916,-5.645 -10.179,-7.11 0.684,-2.884 1.251,-5.742 1.534,-8.697 1.168,-12.18 -0.826,-22.26 -8.656,-31.817 -0.544,-3.507 -1.155,-7.038 -2.417,-10.37 -3.879,-10.244 -12.185,-16.226 -21.829,-20.608 5.188,-18.544 19.029,-40.094 31.336,-54.688 2.62,-3.106 15.124,-15.096 15.417,-17.459 0.076,-0.622 -0.59,-1.681 -0.994,-2.184 -1.954,-2.433 -35.211,-12.18 -40.178,-13.798 -29.734,-9.594 -59.401,-19.394 -88.999,-29.398 -25.568,-8.829 -51.181,-17.524 -76.839,-26.086 -7.379,-2.527 -46.285,-17.076 -50.476,-16.852 -0.241,0.013 -0.481,0.057 -0.715,0.117 -2.756,0.697 -5.153,10.011 -6.149,12.753 -8.095,22.276 -19.175,45.226 -37.267,61.04 -1.296,-2.017 -2.612,-4.01 -4.182,-5.829 -7.749,-8.977 -20.163,-13.779 -31.764,-14.654 -12.371,-0.934 -22.237,2.258 -31.634,10.32 -6.879,-2.809 -38.47,-12.301 -45.22,-10.456 -6.997,1.911 -13.145,8.442 -16.708,14.562 -3.739,6.42 -5.744,14.926 -3.679,22.209 1.731,6.106 5.954,8.738 11.108,11.706 -15.151,5.289 -30.157,11.019 -45.278,16.399 -13.751,4.891 -28.933,9.153 -41.562,16.575 -6.457,3.795 -12.65,8.839 -16.356,15.466 -4.387,7.846 -7.046,17.637 -10.203,26.134 -5.33,14.603 -11.018,29.072 -17.06,43.395 -4.857,11.377 -9.998,26.268 -19.487,34.623 -6.39,5.626 -14.945,9.274 -22.412,13.25 l -45.034,23.831 c -7.244,3.792 -15.427,7.138 -22.142,11.743 -2.145,1.471 -4.375,3.354 -5.62,5.678 -2.861,5.344 3.686,20.969 5.383,27.109 -2.487,-1.55 -5.053,-2.963 -7.606,-4.399 -0.713,-30.454 -0.081,-60.997 -0.11,-91.463 l -0.123,-187.597 -0.018,-259.89 c 0.025,-43.973 -0.475,-88.024 0.107,-131.986 0.021,-1.634 -0.217,-3.983 0.683,-5.342 z"
       id="path5" />
    <path
       fill="#faf8ec"
       d="m 632.707,282.601 c 8.334,-0.838 15.656,0.601 22.606,5.383 9.699,6.673 14.823,18.985 16.852,30.204 2.363,13.062 1.501,28.896 -6.386,40.082 -5.206,7.386 -12.246,10.611 -20.863,12.09 -7.337,0.828 -14.707,-0.6 -21.04,-4.423 -9.737,-5.877 -15.674,-16.173 -18.275,-27.024 -3.23,-13.471 -1.708,-30.259 5.784,-42.137 5.03,-7.975 12.275,-12.177 21.322,-14.175 z"
       id="path7" />
    <path
       fill="#faf8ec"
       d="m 476.781,550.509 c 0.137,-0.024 0.272,-0.067 0.411,-0.071 2.625,-0.079 7.377,5.867 9.273,7.842 -11.008,6.582 -24.026,9.458 -34.659,16.815 -7.701,5.328 -13.154,12.602 -14.807,21.933 -2.07,11.68 2.56,23.691 9.215,33.139 13.939,19.789 39.489,29.057 62.536,32.939 39.667,6.683 100.127,2.249 133.473,-21.464 6.191,1.569 12.29,4.381 18.209,6.776 10.373,4.147 20.674,8.475 30.898,12.981 -14.919,7.171 -30.06,14.001 -45.08,20.968 -9.15,4.244 -18.552,8.291 -27.236,13.446 -13.573,8.059 -33.181,24.191 -42.464,36.972 -5.95,8.194 -10.394,17.353 -15.235,26.217 -7.065,12.74 -13.964,25.571 -20.695,38.489 -5.142,9.733 -13.764,26.38 -20.454,34.574 -41.273,-23.55 -84.083,-43.936 -126.351,-65.558 l -49.417,-24.663 c -14.892,-7.6 -29.001,-15.72 -44.887,-21.342 -4.115,-1.457 -9.06,-1.644 -13.393,-2.166 2.366,-5.342 5.129,-10.498 7.426,-15.876 7.677,-17.97 14.547,-36.331 21.74,-54.501 4.405,-11.126 7.872,-23.051 13.242,-33.719 3.137,-6.231 8.434,-10.756 14.21,-14.502 12.107,-7.851 26.273,-12.726 39.704,-17.797 19.655,-7.421 39.302,-14.493 59.333,-20.862 11.615,-3.693 23.445,-6.743 35.008,-10.57 z"
       id="path17" />
    <path
       fill="#3c1110"
       d="m 326.693,693.696 c 2.983,-0.155 5.97,0.202 8.832,1.057 5.558,1.666 9.205,4.814 11.916,9.863 0.042,3.121 -0.216,5.926 -0.793,8.994 5.712,-2.185 11.362,-3.59 17.52,-3.009 5.079,0.48 10.569,2.319 13.85,6.425 3.299,4.129 2.924,8.399 2.367,13.294 6.765,-2.915 14.089,-4.279 21.341,-2.391 4.31,1.122 8.904,3.353 11.155,7.398 1.93,3.471 1.635,6.449 0.686,10.16 6.375,-2.502 12.99,-3.491 19.732,-1.87 4.564,1.098 9.228,3.451 11.591,7.694 2.394,4.299 1.52,8.269 0.221,12.687 5.933,-2.355 12.278,-3.678 18.67,-2.863 4.975,0.635 10.494,2.544 13.619,6.698 2.961,3.934 2.655,8.01 1.888,12.563 l 0.636,-0.203 c 8.405,-2.632 17.847,-3.429 25.851,0.958 3.451,1.892 6.348,4.834 7.401,8.706 0.929,3.418 0.438,6.906 -1.321,9.974 -3.535,6.166 -10.35,8.698 -16.848,10.373 -2.215,0.263 -4.532,0.405 -6.754,0.198 -6.065,-0.567 -13.522,-2.825 -17.432,-7.727 -2.916,-3.656 -2.344,-6.829 -1.93,-11.154 -2.168,-0.823 -7.588,1.388 -10.229,1.422 -3.311,0.043 -7.009,-0.494 -10.174,-1.452 -4.578,-1.384 -9.285,-4.11 -11.493,-8.533 -1.873,-3.75 -1.28,-6.693 0.058,-10.477 -3.808,1.359 -7.729,2.449 -11.779,2.712 -6.352,0.413 -13.687,-1.468 -18.458,-5.844 -3.656,-3.353 -4.443,-6.713 -4.538,-11.452 -5.755,1.216 -11.309,1.572 -17.102,0.354 -4.682,-0.984 -9.875,-2.893 -12.508,-7.155 -2.458,-3.98 -1.705,-7.56 -0.781,-11.833 -4.368,2.017 -8.813,3.23 -13.638,3.294 -6.093,0.079 -13.148,-1.641 -17.53,-6.073 -3.897,-3.943 -3.917,-7.673 -3.759,-12.837 -2.51,0.832 -5.013,1.602 -7.614,2.104 -6.629,1.278 -14.004,0.458 -19.605,-3.54 -3.142,-2.243 -5.615,-5.562 -6.11,-9.469 -0.484,-3.823 0.809,-7.577 3.226,-10.531 4.847,-5.927 12.582,-7.808 19.836,-8.515 z"
       id="path18" />
    <path
       fill="#faf8ec"
       d="m 491.389,783.209 c 4.178,-0.127 8.866,0.246 12.458,2.561 2.146,1.383 3.8,3.503 4.19,6.067 0.356,2.344 -0.396,4.645 -1.797,6.525 -3.568,4.791 -9.571,6.187 -15.168,6.874 -4.705,-0.203 -9.783,-1.014 -13.602,-3.985 -1.884,-1.465 -3.394,-3.511 -3.655,-5.939 -0.254,-2.36 0.683,-4.57 2.205,-6.335 3.889,-4.508 9.784,-5.403 15.369,-5.768 z"
       id="path19" />
    <path
       fill="#faf8ec"
       d="m 324.833,699.11 c 4.852,-0.509 10.751,-0.091 14.594,3.228 1.706,1.474 2.824,3.504 2.949,5.772 0.149,2.696 -1.042,5.249 -2.803,7.232 -3.635,4.093 -8.273,5.06 -13.448,5.411 -4.141,0.183 -8.283,-0.101 -12.01,-2.098 -2.36,-1.264 -4.444,-3.274 -5.143,-5.932 -0.56,-2.129 -0.095,-4.316 1.093,-6.143 3.183,-4.891 9.38,-6.483 14.768,-7.47 z"
       id="path20" />
    <path
       fill="#faf8ec"
       d="m 456.827,766.165 c 4.757,-0.279 10.416,0.076 14.455,2.824 1.908,1.298 3.328,3.225 3.676,5.536 0.35,2.322 -0.516,4.743 -1.907,6.585 -3.322,4.404 -8.316,5.475 -13.434,6.29 -4.88,0.172 -9.674,-0.039 -13.943,-2.746 -2.203,-1.397 -4.165,-3.572 -4.677,-6.2 -0.433,-2.228 0.178,-4.38 1.536,-6.171 3.329,-4.393 9.162,-5.461 14.294,-6.118 z"
       id="path21" />
    <path
       fill="#faf8ec"
       d="m 423.155,748.112 c 4.444,-0.322 9.564,0.066 13.446,2.42 2.243,1.36 4.032,3.413 4.58,6.026 0.523,2.489 -0.168,5.007 -1.653,7.042 -3.307,4.531 -8.701,5.612 -13.907,6.263 -4.235,0.157 -8.914,-0.436 -12.642,-2.55 -2.48,-1.406 -4.637,-3.602 -5.237,-6.473 -0.407,-1.941 0.095,-3.96 1.192,-5.591 3.032,-4.51 9.193,-6.131 14.221,-7.137 z"
       id="path22" />
    <path
       fill="#faf8ec"
       d="m 359.679,715.68 c 4.311,0.089 9.558,0.511 13.035,3.324 1.789,1.448 2.924,3.396 3.101,5.706 0.184,2.394 -0.784,4.679 -2.315,6.484 -3.77,4.444 -9.374,5.585 -14.864,6.17 -4.25,-0.087 -9.387,-0.791 -12.85,-3.453 -1.828,-1.405 -3.123,-3.288 -3.349,-5.62 -0.226,-2.34 0.715,-4.577 2.198,-6.348 3.753,-4.484 9.548,-5.629 15.044,-6.263 z"
       id="path23" />
    <path
       fill="#faf8ec"
       d="m 393.596,732.19 c 3.899,0.104 7.988,0.512 11.361,2.66 2.224,1.416 3.944,3.54 4.369,6.187 0.412,2.556 -0.433,5.04 -2.064,7.016 -3.502,4.244 -8.92,5.125 -14.086,5.49 -4.616,-0.01 -9.66,-0.477 -13.506,-3.293 -1.873,-1.372 -3.242,-3.347 -3.527,-5.685 -0.286,-2.35 0.568,-4.636 2.071,-6.426 3.741,-4.457 9.928,-5.415 15.382,-5.949 z"
       id="path24" />
    <path
       fill="#3c1110"
       d="m 426.335,670.378 c 4.299,0.631 3.992,4.328 7.525,5.755 l 5.11,2.039 c 4.635,1.895 8.286,-2.006 12.401,-0.59 0.939,0.323 1.584,1.164 1.923,2.08 0.726,1.959 0.377,3.327 -0.535,5.116 -0.356,0.698 -1.061,1.793 -0.894,2.621 0.647,3.215 2.184,6.623 2.971,9.919 0.172,0.047 0.344,0.093 0.516,0.143 l 0.854,0.254 c 3.012,0.874 6.382,2.42 7.744,5.509 0.498,1.128 0.405,2.362 -0.149,3.446 -0.786,1.542 -1.636,2.05 -3.248,2.48 -0.15,0.04 -1.24,0.285 -1.41,0.398 -1.039,0.689 -1.017,2.595 -1.226,3.747 -4.055,4.386 -7.615,-1.117 -11.76,-0.326 -0.044,1.133 0.053,2.814 -0.456,3.837 -0.901,1.81 -3.382,2.986 -5.066,3.861 -4.896,0.617 -5.299,-2.765 -8.256,-2.782 -0.878,1.715 -1.705,3.591 -3.515,4.388 -1.878,-0.699 -2.296,-2.999 -3.644,-4.305 -1.884,-1.826 -5.676,-1.114 -7.797,-3.296 -0.585,-0.602 -0.426,-0.914 -0.464,-1.69 1.39,-2.877 4.03,-4.563 6.64,-6.216 -2.002,-2.084 -3.963,-3.626 -6.37,-5.227 -3.159,-2.102 -8.939,-5.787 -9.197,-9.997 -0.072,-1.164 0.095,-2.063 0.98,-2.886 2.545,-2.367 6.983,-1.675 10.137,-1.519 l 4.614,-3.179 c -1.356,-2.065 -2.605,-4.092 -2.306,-6.666 0.354,-3.057 2.638,-5.067 4.878,-6.914 z"
       id="path25" />
    <path
       fill="#faf8ec"
       d="m 435.187,703.98 c 3.731,0.512 5.07,1.859 7.557,4.477 -0.097,2.054 0.05,4.93 -0.815,6.808 -0.684,1.489 -1.365,1.602 -2.784,2.215 -2.357,-0.749 -4.913,-1.585 -6.434,-3.663 -1.174,-1.603 -1.758,-3.107 -1.311,-5.11 0.454,-2.039 2.133,-3.626 3.787,-4.727 z"
       id="path26" />
    <path
       fill="#faf8ec"
       d="m 446.485,692.516 c 1.661,1.295 3.482,4.515 4.877,6.278 -1.374,1.786 -3.128,4.956 -5.1,6.035 l -0.914,-0.603 c -2.162,-0.701 -5.228,-1.375 -6.425,-3.545 -0.607,-1.1 -0.726,-2.248 -0.233,-3.416 1.217,-2.882 5.135,-3.793 7.795,-4.749 z"
       id="path27" />
    <path
       fill="#faf8ec"
       d="m 425.353,688.688 c 1.772,0.154 3.663,0.772 4.804,2.231 2.742,3.503 -1.639,9.512 -2.241,13.369 -0.031,0.2 -0.057,0.4 -0.085,0.6 -1.63,-2.481 -4.189,-4.623 -6.256,-6.777 0.756,-3.546 1.166,-6.713 3.778,-9.423 z"
       id="path28" />
    <path
       fill="#faf8ec"
       d="m 434.974,679.744 c 1.114,0.535 5.909,3.584 6.634,4.328 0.813,0.834 1.575,1.914 1.479,3.126 -0.185,2.355 -1.641,3.345 -3.37,4.688 l -4.262,2.201 c -1.226,-2.619 -2.04,-5.418 -2.942,-8.161 z"
       id="path29" />
    <path
       fill="#faf8ec"
       d="m 454.043,700.445 c 1.629,0.159 3.243,0.463 4.654,1.359 1.155,0.733 1.325,1.388 1.613,2.659 l -0.953,1.415 -7.756,-1.459 z"
       id="path30" />
    <path
       fill="#faf8ec"
       d="m 411.352,690.991 c 2.051,0.065 4.655,-0.177 6.466,0.851 0.913,1.467 0.562,2.24 0.406,3.928 -1.456,-0.138 -2.977,-0.239 -4.298,-0.926 -1.638,-0.851 -2.084,-2.22 -2.574,-3.853 z"
       id="path31" />
    <path
       fill="#faf8ec"
       d="m 426.312,674.199 c 1.209,0.514 2.235,1.241 2.759,2.502 0.815,1.958 0.035,3.6 -0.822,5.347 -1.185,-0.426 -2.118,-1.35 -2.538,-2.556 -0.663,-1.907 -0.159,-3.531 0.601,-5.293 z"
       id="path32" />
    <path
       fill="#faf8ec"
       d="m 449.017,708.665 c 2.173,-0.269 3.859,-0.557 5.674,0.841 l 0.091,1.269 c -2.115,-0.123 -4.286,-0.23 -6.215,-1.156 z"
       id="path33" />
    <path
       fill="#faf8ec"
       d="m 716.523,672.44 c 1.139,1.204 0.578,12.543 0.819,15.05 0.916,9.53 4.109,19.404 11.89,25.531 5.395,4.248 12.408,6.523 19.239,5.588 6.853,4.481 13.858,5.733 21.907,6.185 -5.032,3.063 -10.98,5.203 -16.335,7.687 l -34.726,16.091 c -6.066,2.815 -12.504,5.401 -18.315,8.698 9.705,-2.314 19.249,-6.401 28.53,-10.01 14.999,-5.863 29.942,-11.867 44.828,-18.011 4.651,1.332 9.017,1.704 13.829,1.903 -13.791,4.767 -27.297,11.634 -40.612,17.64 -23.668,10.675 -47.49,21.444 -70.706,33.069 9.098,-2.429 18.076,-6.132 26.851,-9.533 20.373,-7.897 40.244,-16.752 60.292,-25.412 11.187,-4.832 26.099,-9.971 36.306,-16.112 3.532,-2.125 6.461,-5.625 9.369,-8.538 2.21,4.054 3.298,8.333 4.427,12.781 -20.382,8.906 -171.846,72.297 -177.117,77.753 17.49,-4.807 35.79,-12.799 52.598,-19.675 l 72.026,-29.915 c 17.57,-7.032 34.808,-14.88 52.442,-21.782 0.359,6.175 0.377,12.395 0.514,18.579 -19.137,7.364 -37.945,16.157 -56.87,24.099 -50.262,21.063 -100.396,42.429 -150.4,64.099 l -78.46,34.042 c -14.513,6.277 -30.357,11.858 -44.055,19.754 -5.109,2.945 -8.5,7.626 -11.547,12.522 -6.593,0.272 -13.186,0.506 -19.781,0.703 0.354,-8.838 -0.037,-16.414 -2.864,-24.827 14.22,-10.178 33.568,-19.706 49.459,-27.544 10.039,-4.951 23.163,-8.972 31.406,-16.697 11.181,-10.479 25.976,-36.892 34.363,-50.733 9.696,-16.001 18.39,-33.404 29.517,-48.425 11.545,-15.585 28.388,-29.875 45.32,-39.233 9.721,-5.373 20.098,-9.697 30.18,-14.346 z"
       id="path34" />
    <path
       fill="#faf8ec"
       d="m 586.215,457.193 c 11.543,3.316 23.002,7.951 34.333,11.946 l 54.549,18.673 160.042,52.848 c -21.977,22.469 -33.056,40.671 -44.967,69.839 -5.159,-1.403 -9.948,-2.132 -15.29,-1.888 -11.759,1.196 -22.627,6.318 -31.489,13.999 -6.804,-3.209 -14.101,-5.733 -21.077,-8.579 0.433,-2.928 1.136,-5.786 -0.503,-8.491 -2.168,-3.578 -5.887,-5.303 -9.863,-6.117 -5.681,-1.164 -9.444,0.212 -14.082,3.273 -19.307,-6.419 -38.73,-15.051 -57.774,-22.477 l -53.927,-21.154 c -11.309,-4.384 -22.775,-8.497 -33.993,-13.099 -1.673,-0.686 -4.162,-1.536 -5.38,-2.896 0.375,-4.381 -2.737,-8.267 -4.89,-11.875 22.147,-15.658 34.748,-49.595 44.311,-74.002 z"
       id="path35" />
    <path
       fill="#faf8ec"
       d="m 171.178,789.627 c 8.89,3.377 17.673,8.828 26.189,13.149 16.538,8.447 33.179,16.692 49.919,24.734 l 129.013,61.085 30.362,14.475 c 4.772,2.292 12.06,4.806 15.959,8.286 l -107.051,0.069 -144.515,-0.107 c -0.418,-40.515 -0.327,-81.179 0.124,-121.691 z"
       id="path36" />
    <path
       fill="#faf8ec"
       d="m 499.263,510.21 c 1.061,-0.015 2.122,-0.006 3.182,0.027 12.084,0.412 22.443,4.505 30.61,13.551 0.96,1.062 1.846,1.987 1.753,3.46 -2.281,-0.231 -4.328,-0.397 -6.531,0.369 -5.498,1.913 -9.017,7.283 -11.415,12.288 -2.526,-1.504 -4.925,-3.237 -7.49,-4.676 -2.047,-1.149 -3.765,-1.974 -6.129,-1.338 -0.975,0.959 -1.028,0.914 -1.121,2.267 2.549,4.129 10.172,7.458 14.146,10.515 0.143,4.272 -0.386,8.478 2.612,11.919 2.346,2.693 6.04,3.981 9.537,4.101 3.887,0.133 6.448,-0.892 9.261,-3.508 16.038,5.541 31.452,12.381 47.241,18.539 l 107.302,41.65 c 0.055,0.463 0.118,0.925 0.163,1.389 0.206,2.156 0.199,3.435 1.74,5.08 2.579,2.752 6.44,4.814 10.258,4.877 2.927,0.048 4.8,-1.523 6.812,-3.446 7.1,2.526 13.967,5.687 21.032,8.325 l -6.934,11.191 c -4.206,1.558 -8.324,3.329 -12.454,5.075 -5.191,2.423 -10.425,4.754 -15.698,6.991 -11.346,-6.187 -23.8,-10.737 -35.741,-15.684 -6.047,-2.505 -12.674,-5.957 -19.052,-7.407 -1.772,0.268 -2.829,1.483 -4.111,2.63 -7.242,-3.593 -14.914,-6.446 -22.401,-9.5 -11.294,-4.607 -22.531,-9.247 -34.091,-13.158 1.065,-2.816 3.264,-6.043 3.442,-9.045 0.168,-2.836 -1.475,-5.607 -3.394,-7.566 -4.495,-4.587 -11.664,-7.399 -18.06,-7.308 -2.925,0.041 -11.874,2.028 -13.329,4.911 -0.634,1.258 -0.13,2.308 -1.25,3.423 -8.121,-1.743 -16.529,-5.803 -24.297,-8.844 -13.763,-5.387 -27.652,-10.654 -41.169,-16.634 2.334,-9.028 5.493,-9.87 8.312,-16.581 0.031,-1.789 -0.351,-2.944 -1.481,-4.361 -6.858,-8.595 -20.199,-12.092 -30.505,-13.354 3.328,-5.592 7.476,-11.042 11.693,-15.979 8.033,-9.402 15.222,-13.238 27.557,-14.189 z"
       id="path37" />
    <path
       fill="#3c1110"
       d="m 495.819,522.601 c 3.73,-0.341 11.761,-1.094 14.929,1.058 0.979,0.665 1.548,1.17 1.738,2.367 -2.383,2.67 -15.862,0.521 -22.465,5.26 -0.168,0.121 -0.334,0.246 -0.501,0.369 -2.17,2.647 -2.098,5.704 -3.781,7.854 -0.86,1.099 -1.263,1.237 -2.537,1.544 -0.711,-0.563 -0.965,-0.606 -1.281,-1.505 -0.883,-2.509 0.148,-5.69 1.371,-7.911 2.763,-5.02 7.232,-7.461 12.527,-9.036 z"
       id="path38" />
    <path
       fill="#faf8ec"
       d="m 178.29,765.828 c 11.762,2.698 22.824,8.704 33.686,13.824 17.15,8.038 34.147,16.402 50.98,25.087 26.809,13.369 53.696,26.58 80.661,39.633 20.726,10.011 41.409,20.216 62.259,29.962 11.529,5.389 30.078,12.842 40.214,19.605 2.642,7.303 2.286,14.219 1.79,21.836 -9.003,-2.022 -18.331,-7.73 -26.629,-11.779 L 386.11,887.126 184.771,790.625 c -1.67,-8.41 -4.869,-16.402 -6.481,-24.797 z"
       id="path39" />
    <path
       fill="#faf8ec"
       d="m 275.093,775.938 c 3.294,0.043 9.349,3.781 12.397,5.221 10.659,5.036 21.092,10.531 31.68,15.711 l 65.599,31.653 c 24.65,11.875 49.973,22.939 74.044,35.924 -3.961,2.487 -24.047,15.956 -27.457,15.868 -33.046,-15.426 -65.597,-31.807 -98.517,-47.479 -18.436,-8.716 -36.758,-17.673 -54.959,-26.87 -10.696,-5.292 -21.838,-10.263 -32.146,-16.253 9.921,-4.298 19.712,-8.892 29.359,-13.775 z"
       id="path40" />
    <path
       fill="#faf8ec"
       d="m 269.365,722.498 0.396,0.423 c -2.03,1.606 -4.062,3.318 -5.585,5.429 -2.136,2.959 -2.964,6.203 -2.243,9.805 1.898,9.485 14.537,12.826 22.964,12.403 2.163,-0.108 7.295,-1.452 9.134,-0.84 0.268,0.089 0.891,2.686 0.968,2.973 1.077,3.981 3.144,7.031 6.632,9.305 7.296,4.756 16.706,4.26 24.853,2.625 -0.367,1.941 -0.655,3.999 -0.111,5.934 1.081,3.851 4.14,6.696 7.567,8.538 7.417,3.989 15.305,3.925 23.215,1.714 0.091,2.074 0.091,4.236 0.943,6.166 1.987,4.503 5.955,7.461 10.48,9.134 8.247,3.051 16.129,1.937 24.018,-1.521 -0.784,3.575 -1.456,6.616 -0.125,10.187 1.422,3.818 4.486,6.373 8.113,8.038 8.54,3.922 17.898,3.053 26.421,-0.283 -0.189,1.15 -0.39,2.316 -0.464,3.48 -0.215,3.375 1.521,6.876 3.77,9.303 4.247,4.582 10.762,6.346 16.835,6.518 7.028,0.2 14.614,-1.703 19.751,-6.728 4.055,-3.967 4.973,-7.975 5.072,-13.386 14.479,8.012 29.4,15.29 43.521,23.919 -12.075,7.117 -24.698,13.191 -37.497,18.883 -4.954,-2.093 -9.884,-4.242 -14.789,-6.449 -19.642,-8.874 -38.718,-18.97 -58.131,-28.336 -43.291,-20.752 -86.426,-41.827 -129.401,-63.225 -7.459,4.08 -15.313,7.65 -22.967,11.366 -8.615,4.182 -17.221,8.557 -26.051,12.265 -11.257,-4.611 -23.065,-9.861 -33.658,-15.802 25.302,-14.212 50.979,-27.782 76.369,-41.838 z"
       id="path41" />
    <path
       fill="#faf8ec"
       d="m 720.958,654.546 c 0.024,0.021 0.059,0.035 0.072,0.064 0.845,1.851 -1.841,9.304 -2.402,11.702 -7.009,2.33 -13.756,5.674 -20.463,8.754 l -28.928,13.275 c -11.045,5.034 -22.644,9.67 -33.21,15.649 -18.119,10.254 -35.897,26.735 -47.872,43.773 -10.552,15.011 -19.031,31.761 -28.516,47.492 -7.999,13.267 -20.949,36.802 -31.783,46.899 -7.471,6.963 -26.631,14.078 -36.505,19.167 -15.435,7.954 -30.79,16.186 -45.418,25.555 l -4.854,-1.767 c -0.973,-0.395 -1.691,-0.805 -2.527,-1.441 2.997,-3.269 8.721,-5.78 12.615,-8.072 8.597,-5.062 17.218,-10.068 26.12,-14.58 11.055,-5.603 38.641,-17.198 46.209,-24.405 6.752,-6.429 22.09,-37.856 27.4,-47.622 10.066,-18.51 21.307,-42.685 34.606,-58.733 8.092,-9.765 22.162,-21.049 32.866,-27.782 15.555,-9.784 33.493,-17.137 50.173,-24.807 17.265,-7.939 34.582,-16.545 52.417,-23.121 z"
       id="path42" />
    <path
       fill="#faf8ec"
       d="m 800.744,640.607 c 1.834,-0.132 3.744,-0.328 5.563,0.014 5.195,0.978 9.204,4.678 11.953,9.02 5.734,9.055 5.725,21.752 3.453,31.895 -4.117,-1.787 -8.19,-3.673 -12.216,-5.658 -0.977,-1.71 -1.933,-3.557 -3.137,-5.118 -1.783,-2.311 -4.789,-4.132 -7.718,-4.37 -3.166,-0.257 -6.004,1.175 -8.294,3.271 -4.831,4.422 -8.109,12.11 -8.387,18.632 -0.14,3.287 0.592,6.875 2.977,9.295 2.165,2.198 6.431,4.104 9.548,3.972 3.748,-0.16 5.885,-2.891 8.178,-5.503 0.784,-0.05 1.507,-0.017 2.28,0.132 2.321,0.449 8.114,2.007 9.443,3.884 l -0.47,1.632 c -1.032,1.87 -2.114,3.713 -3.245,5.526 -4.928,7.947 -12.335,15.464 -21.783,17.511 -5.757,1.278 -11.786,0.138 -16.678,-3.155 -6.551,-4.44 -10.204,-12.573 -11.717,-20.125 -2.695,-13.455 1.226,-28.068 8.761,-39.341 7.687,-11.501 17.891,-18.849 31.489,-21.514 z"
       id="path43" />
    <path
       fill="#faf8ec"
       d="m 484.26,580.668 c 6.785,1.902 13.67,5.512 20.21,8.196 14.692,6.03 29.692,12.189 44.757,17.195 -1.844,14.781 -3.964,29.515 -5.6,44.323 -0.127,2.288 -0.502,4.576 -0.802,6.847 -27.792,-17.975 -48.49,-45.033 -58.565,-76.561 z"
       id="path44" />
    <path
       fill="#faf8ec"
       d="m 481.841,650.224 c -0.543,-0.197 -1.088,-0.391 -1.623,-0.609 -14.719,-6.012 -29.061,-17.91 -35.226,-32.847 -3.258,-7.895 -4.299,-17.058 -0.813,-25.069 4.858,-11.162 14.848,-15.265 25.315,-19.586 0.404,2.863 0.835,5.721 1.293,8.576 5.348,32.575 27.064,60.354 53.325,79.26 -2.294,-0.266 -5.016,-0.352 -7.203,-1.071 -4.108,-1.349 -8.322,-5.527 -11.489,-8.365 -18.747,-16.796 -29.906,-34.327 -41.715,-56.263 5.389,24.687 22.241,46.727 41.031,62.923 -4.163,-1.413 -9.112,-1.912 -12.94,-4.112 -10.861,-6.245 -30.962,-33.71 -38.04,-44.924 l -0.812,1.768 c 6.786,15.253 16.918,28.768 28.897,40.319 z"
       id="path45" />
    <path
       fill="#6f411e"
       d="m 449.594,601.499 c 1.507,2.172 2.906,4.305 4.162,6.638 l -0.812,1.768 c -1.372,-2.748 -2.374,-5.499 -3.35,-8.406 z"
       id="path46" />
    <path
       fill="#faf8ec"
       d="m 457.167,546.603 c 3.484,-0.399 7.721,-0.641 11.025,0.617 l -0.11,0.627 c -4.535,2.194 -14.63,3.992 -20.093,5.677 -15.613,4.969 -31.138,10.207 -46.569,15.713 -21.287,7.614 -54.774,18.32 -71.01,33.545 -3.032,2.844 -5.347,6.579 -7.175,10.285 -4.056,8.222 -6.985,17.395 -10.292,25.963 -8.984,23.274 -17.285,47.428 -27.943,69.968 -17.201,7.507 -33.606,17.106 -49.993,26.247 l -45.248,24.823 -6.35,3.453 -2.456,-2.425 c -0.267,-1.309 -0.151,-1.115 0.861,-1.874 5.617,-4.218 14.429,-7.76 20.779,-11.055 l 40.309,-21.343 c 9.026,-4.792 18.806,-9.317 27.117,-15.281 3.442,-2.47 6.117,-5.51 8.464,-9.011 7.542,-11.251 12.754,-24.912 17.818,-37.421 4.915,-11.953 9.603,-23.997 14.062,-36.127 3.04,-8.331 5.58,-18.732 10.421,-26.141 4.029,-6.168 9.745,-10.047 16.157,-13.453 13.984,-7.429 30.473,-11.917 45.352,-17.355 15.891,-5.954 31.874,-11.661 47.942,-17.118 8.824,-3.009 17.798,-6.412 26.932,-8.314 z"
       id="path47" />
    <path
       fill="#faf8ec"
       d="m 776.618,613.693 c 6.335,-0.317 13.801,2.096 19.48,4.744 9.374,4.37 14.221,10.633 17.778,20.22 -7.709,-5.966 -17.463,-11.366 -27.315,-12.359 -11.174,-1.125 -21.403,3.021 -29.907,10.114 -14.136,11.791 -21.112,29.87 -22.659,47.817 -0.178,11.333 2.591,20.422 9.493,29.436 -3.69,-0.811 -7.043,-1.851 -10.103,-4.152 -6.574,-4.942 -9.549,-13.639 -10.533,-21.526 -2.458,-19.709 5.082,-38.835 17.233,-54.147 9.32,-11.744 21.655,-18.517 36.533,-20.147 z"
       id="path48" />
    <path
       fill="#faf8ec"
       d="m 779.294,631.623 c 6.67,-0.466 12.695,0.573 18.606,3.748 -3.093,0.86 -6.192,1.837 -9.132,3.133 -14.553,6.419 -25.193,19.127 -30.742,33.874 -5.537,14.717 -4.974,28.971 1.438,43.243 0.39,0.7 0.737,1.417 1.092,2.134 l -0.527,0.542 c -2.304,-0.362 -4.554,-1.677 -6.485,-2.962 -7.379,-4.912 -11.783,-12.657 -13.432,-21.254 -2.783,-14.504 2.431,-31.293 10.652,-43.245 6.854,-9.965 16.619,-16.946 28.53,-19.213 z"
       id="path49" />
    <path
       fill="#faf8ec"
       d="m 580.818,620.182 c 17.628,6.723 34.76,14.729 52.422,21.356 -5.459,3.425 -11.611,5.744 -17.624,7.994 -13.903,4.633 -28.274,7.719 -42.853,9.203 2.343,-12.92 5.029,-25.776 8.055,-38.553 z"
       id="path50" />
    <path
       fill="#faf8ec"
       d="m 543.726,548.147 c 50.363,19.312 100.226,40.017 150.757,58.892 -1.306,2.214 -2.128,4.302 -2.906,6.728 -14.95,-6.793 -30.658,-12.312 -45.934,-18.347 l -104.7,-41.141 c 0.821,-2.071 1.857,-4.102 2.783,-6.132 z"
       id="path51" />
    <path
       fill="#faf8ec"
       d="m 430.899,509.506 c 5.817,0.924 11.588,2.765 17.276,4.286 -13.151,8.595 -16.791,21.503 -19.934,36.061 -2.362,0.83 -5.488,-0.931 -7.693,-1.805 -3.588,-1.423 -6.762,-3.623 -8.207,-7.349 -1.852,-4.776 -0.467,-10.446 1.527,-14.979 3.392,-7.713 9.185,-13.198 17.031,-16.214 z"
       id="path52" />
    <path
       fill="#faf8ec"
       d="m 314.51,738.644 c 5.228,-0.66 11.078,-0.721 15.759,2.011 2.299,1.341 4.231,3.361 4.863,6.006 0.528,2.215 -0.014,4.426 -1.282,6.286 -2.994,4.39 -8.614,5.992 -13.559,6.918 -5.096,0.349 -9.81,0.481 -14.491,-2.003 -2.547,-1.351 -4.911,-3.538 -5.613,-6.432 -0.532,-2.192 0.008,-4.472 1.274,-6.316 2.986,-4.345 8.193,-5.569 13.049,-6.47 z"
       id="path53" />
    <path
       fill="#faf8ec"
       d="m 446.629,804.638 c 4.86,-0.314 9.911,-0.748 14.421,1.486 2.416,1.197 4.413,3.122 5.246,5.732 0.779,2.442 0.389,4.994 -0.905,7.181 -2.697,4.559 -8.003,5.962 -12.796,7.119 -5.203,0.664 -11.156,0.152 -15.683,-2.694 -2.288,-1.439 -4.097,-3.536 -4.672,-6.227 -0.479,-2.245 0.112,-4.566 1.42,-6.426 2.934,-4.173 8.251,-5.35 12.969,-6.171 z"
       id="path54" />
    <path
       fill="#faf8ec"
       d="m 411.059,788.143 c 4.801,-0.556 10.373,-0.4 14.753,1.796 2.349,1.177 4.386,3.01 5.123,5.607 0.683,2.408 0.125,5.005 -1.175,7.104 -2.825,4.563 -8.031,6.238 -12.985,7.27 -4.755,0.31 -9.339,0.108 -13.663,-2.164 -2.719,-1.428 -5.184,-3.687 -5.96,-6.757 -0.581,-2.3 0.016,-4.636 1.344,-6.563 2.835,-4.114 7.914,-5.493 12.563,-6.293 z"
       id="path55" />
    <path
       fill="#faf8ec"
       d="m 348.568,755.181 c 4.262,-0.394 9.512,0.022 13.183,2.339 2.123,1.34 3.795,3.43 4.255,5.937 0.461,2.51 -0.364,4.928 -1.919,6.902 -3.556,4.515 -9.394,5.785 -14.806,6.273 -4.843,-0.048 -9.707,-0.315 -13.919,-3.033 -2.042,-1.317 -3.757,-3.239 -4.224,-5.684 -0.428,-2.246 0.303,-4.441 1.675,-6.225 3.635,-4.73 10.205,-5.844 15.755,-6.509 z"
       id="path56" />
    <path
       fill="#faf8ec"
       d="m 382.269,770.714 c 3.988,-0.053 8.308,0.365 11.609,2.822 1.839,1.368 3.08,3.34 3.283,5.646 0.238,2.702 -0.912,5.227 -2.665,7.227 -4.187,4.773 -10.577,5.843 -16.576,6.162 -4.063,-0.48 -8.431,-1.557 -11.849,-3.903 -1.894,-1.301 -3.467,-3.109 -3.803,-5.452 -0.314,-2.185 0.578,-4.369 1.95,-6.036 4.316,-5.246 11.747,-6.01 18.051,-6.466 z"
       id="path57" />
    <path
       fill="#faf8ec"
       d="m 282.254,724.087 c 4.546,-0.383 9.592,-0.368 13.726,1.794 2.329,1.219 4.347,3.179 4.976,5.803 0.557,2.323 -0.042,4.711 -1.37,6.663 -3.023,4.444 -8.11,5.739 -13.069,6.637 -4.613,0.25 -9.44,-0.103 -13.606,-2.281 -2.404,-1.256 -4.68,-3.166 -5.458,-5.864 -0.565,-1.958 -0.107,-3.945 0.988,-5.627 2.891,-4.438 8.898,-6.144 13.813,-7.125 z"
       id="path58" />
    <path
       fill="#faf8ec"
       d="m 454.79,516.035 c 4.253,-0.609 9.888,1.937 13.773,3.674 -4.802,7.239 -11.341,13.457 -14.414,21.713 -3.303,0.887 -6.555,2.012 -9.81,3.062 l -10.287,3.416 c 0.538,-3.534 1.363,-7.126 2.521,-10.509 3.297,-9.635 8.997,-16.866 18.217,-21.356 z"
       id="path59" />
    <path
       fill="#faf8ec"
       d="m 475.674,568.875 c 1.714,2.068 1.724,7.897 2.358,10.73 0.717,3.199 2.036,6.432 3.181,9.497 7.889,21.101 21.397,41.545 38.057,56.709 5.452,4.963 11.803,8.884 17.156,13.918 l 0.408,0.391 c -0.829,0.07 -1.899,0.232 -2.719,0.003 -2.876,-0.802 -6.025,-3.853 -8.358,-5.674 -11.299,-8.812 -21.234,-17.767 -29.702,-29.472 -9.645,-13.332 -23.133,-39.05 -20.381,-56.102 z"
       id="path60" />
    <path
       fill="#faf8ec"
       d="m 805.552,680.283 c 5.205,1.444 21.107,8.199 24.886,11.505 1.264,1.105 1.398,1.984 1.471,3.602 -0.78,1.476 -1.282,1.633 -2.684,2.469 -5.629,0.273 -20.976,-4.328 -25.029,-8.194 -1.182,-1.128 -1.876,-2.415 -1.879,-4.085 -0.004,-2.281 1.702,-3.865 3.235,-5.297 z"
       id="path61" />
    <path
       fill="#faf8ec"
       d="m 797.039,672.005 c 1.212,0.139 2.563,0.493 3.653,1.06 1.088,0.565 1.481,0.994 1.817,2.145 -3.783,4.581 -5.885,8.003 -4.554,14.08 0.314,1.431 0.751,2.721 0.527,4.207 -0.963,1.475 -2.005,1.96 -3.556,2.735 -0.884,-0.117 -1.776,-0.233 -2.645,-0.434 -1.669,-0.385 -2.977,-1.182 -3.873,-2.667 -1.613,-2.673 -1.304,-5.969 -0.494,-8.85 1.473,-5.237 4.327,-9.644 9.125,-12.276 z"
       id="path62" />
    <path
       fill="#faf8ec"
       d="m 716.068,616.551 c 6.818,4.399 15.37,6.751 22.779,10.11 -1.105,1.703 -2.395,3.299 -3.623,4.916 -7.726,-3.505 -15.692,-6.776 -23.694,-9.598 1.382,-2.034 2.808,-3.689 4.538,-5.428 z"
       id="path63" />
    <path
       fill="#faf8ec"
       d="m 555.374,602.017 c 0.99,0.454 1.568,0.841 2.32,1.631 -0.725,6.018 -2.179,11.931 -3.029,17.935 -1.757,12.996 -3.172,26.036 -4.242,39.107 -0.615,0.064 -1.032,-0.151 -1.608,-0.347 -1.779,-5.67 4.762,-49.604 6.559,-58.326 z"
       id="path64" />
    <path
       fill="#faf8ec"
       d="m 570.091,608.103 c 0.48,0.229 0.786,0.536 1.181,0.886 0.319,5.884 -8.794,43.152 -10.636,51.253 l -0.738,-0.397 c -1.037,-7.19 7.748,-42.597 10.193,-51.742 z"
       id="path65" />
    <path
       fill="#faf8ec"
       d="m 562.801,604.111 2.359,0.64 c 0.943,2.59 -7.131,33.808 -7.93,39.96 l -0.402,1.578 c -1.377,-3.347 4.834,-36.345 5.973,-42.178 z"
       id="path66" />
    <path
       fill="#faf8ec"
       d="m 534.342,533.855 c 2.421,0.323 3.329,1.535 4.935,3.23 -2.278,0.584 -4.607,1.157 -6.651,2.361 -4.852,2.857 -6.876,6.924 -8.227,12.172 -0.169,1.181 -0.251,1.994 -0.892,3.029 -1.194,-1.512 -1.309,-4.185 -1.668,-6.087 3.371,-6.325 6.711,-10.471 12.503,-14.705 z"
       id="path67" />
    <path
       fill="#faf8ec"
       d="m 714.209,606.892 c 1.015,0.101 1.291,0.335 2.121,0.883 0.439,2.285 -6.25,6.561 -7.826,8.725 -1.585,2.175 -2.145,4.28 -2.715,6.853 l -0.371,0.516 -0.674,-0.656 c -0.852,-3.114 -0.766,-5.725 0.437,-8.776 1.66,-4.206 5.16,-5.858 9.028,-7.545 z"
       id="path68" />
    <path
       fill="#faf8ec"
       d="m 577.073,608.321 0.63,0.828 c -2.314,11.203 -5.033,22.321 -7.303,33.536 -1.133,5.596 -1.467,12.169 -3.517,17.472 -0.32,-0.427 -0.435,-0.456 -0.514,-0.946 -0.51,-3.166 8.974,-48.148 10.704,-50.89 z"
       id="path69" />
    <path
       fill="#faf8ec"
       d="m 401.787,776.661 c 4.085,2.063 8.489,3.416 12.539,5.56 l -0.95,0.434 c -3.932,0.551 -7.7,1.635 -11.48,2.813 0.324,-3.104 0.402,-5.714 -0.109,-8.807 z"
       id="path70" />
    <path
       fill="#faf8ec"
       d="m 436.065,793.638 c 1.537,0.661 3.03,1.458 4.524,2.213 1.566,0.791 4.509,1.944 5.087,3.699 l -1.292,0.38 c -2.624,0.648 -5.154,1.711 -7.684,2.656 -0.098,-3.008 -0.3,-5.957 -0.635,-8.948 z"
       id="path71" />
    <path
       fill="#faf8ec"
       d="m 370.735,760.439 c 3.323,1.498 6.837,2.876 9.94,4.786 l -0.358,0.47 c -2.873,0.502 -5.719,1.204 -8.565,1.838 -0.216,-2.374 -0.649,-4.739 -1.017,-7.094 z"
       id="path72" />
    <path
       fill="#faf8ec"
       d="m 706.521,604.06 0.237,0.46 c -0.844,0.673 -1.687,1.367 -2.493,2.086 -4.328,3.862 -5.623,9.952 -5.968,15.502 -0.178,-0.266 -0.389,-0.513 -0.536,-0.797 -1.002,-1.936 -0.579,-6.477 0.135,-8.466 1.643,-4.58 4.413,-6.788 8.625,-8.785 z"
       id="path73" />
    <path
       fill="#faf8ec"
       d="m 306.201,728.886 c 2.495,1.095 6.735,2.332 8.612,4.275 l -0.925,0.375 c -2.503,0.47 -4.918,1.218 -7.356,1.943 0.036,-2.226 -0.129,-4.38 -0.331,-6.593 z"
       id="path74" />
    <path
       fill="#faf8ec"
       d="m 340.294,745.676 c 2.491,1.135 4.952,2.274 7.362,3.577 l -0.332,0.52 -6.701,1.75 z"
       id="path75" />
    <path
       fill="#dfb6aa"
       d="m 560.037,597.174 c 1.934,0.032 3.886,-0.095 5.816,0.016 1.215,0.07 2.281,-0.009 3.129,0.924 l -1.157,1.241 c -2.988,-0.376 -5.977,-0.737 -8.969,-1.083 l -0.277,-0.415 z"
       id="path76" />
    <path
       fill="#faf8ec"
       d="m 539.852,543.396 0.434,0.633 c -1.498,3.177 -2.833,6.401 -4.146,9.658 l -0.471,-0.186 -0.34,-1.238 c 0.621,-3.453 2.452,-6.13 4.523,-8.867 z"
       id="path77" />
    <path
       fill="#faf8ec"
       d="m 280.589,716.422 c 0.33,0.072 0.79,0.405 1.09,0.575 l -0.239,0.923 c -1.315,1.547 -6.063,2.397 -8.184,3.029 l -0.303,-0.017 -0.082,-0.396 c 2.387,-1.681 5.096,-2.846 7.718,-4.114 z"
       id="path78" />
    <path
       fill="#faf8ec"
       d="m 532.235,545.952 c 0.121,2.004 -1.875,9.38 -2.45,11.714 -0.228,-0.646 -0.329,-0.888 -0.502,-1.566 -0.864,-3.38 1.233,-7.382 2.952,-10.148 z"
       id="path79" />
    <path
       style="font-weight:900;font-size:192px;line-height:1.5;font-family:'Noto Serif CJK KR';-inkscape-font-specification:'Noto Serif CJK KR Heavy';text-align:center;text-anchor:middle;fill:#3c1110;fill-rule:evenodd"
       d="m 434.33601,184.82033 v 29.952 c -6.72,-6.72 -17.088,-15.936 -17.088,-15.936 l -10.368,15.168 h -16.32 v -19.392 c 10.176,-0.96 19.584,-2.112 27.456,-3.456 6.72,2.688 11.328,2.496 13.824,0.576 l -25.344,-25.344 c -18.048,9.6 -53.76,21.504 -82.56,27.264 l 0.192,2.304 c 13.44,0.576 27.648,0.576 41.664,0.192 v 17.856 h -40.128 l 1.536,5.376 h 8.64 v 30.336 h -14.016 l 1.536,5.376 h 12.48 v 33.792 h -10.56 l 1.536,5.376 h 38.976 v 18.816 c -17.472,1.92 -31.872,3.456 -40.512,4.032 l 12.288,29.568 c 2.304,-0.576 4.416,-2.304 5.76,-4.8 42.816,-14.592 70.848,-25.536 89.088,-34.368 l -0.192,-2.304 -41.664,5.184 v -16.128 h 43.776 v 54.72 h 4.8 c 13.248,0 21.12,-6.144 21.12,-8.064 v -41.472 c 3.456,1.344 5.76,3.264 6.912,5.376 1.728,3.456 2.688,14.4 2.688,22.272 23.616,0 31.296,-13.632 31.296,-33.216 0,-16.704 -9.792,-38.016 -30.912,-50.304 11.328,-13.056 24.192,-33.216 31.488,-45.888 4.608,0 7.104,-0.768 8.64,-2.88 l -25.728,-23.04 -13.44,13.056 h -8.256 l -28.608,-13.056 z m -77.376,34.56 h 8.832 v 30.336 h -8.832 z m 43.008,0 v 30.336 h -9.408 v -30.336 z m 21.312,0 h 9.408 c 1.536,0 2.88,-0.384 3.648,-1.152 v 27.072 l -8.64,-8.64 -4.416,6.912 z m -64.32,69.504 v -33.792 h 8.832 v 33.792 z m 64.32,-4.992 v -28.8 h 13.056 v 28.608 l -7.872,-8.256 z m -21.312,4.992 h -9.408 v -33.792 h 9.408 z m 73.152,-98.688 c -1.344,16.128 -4.992,40.32 -7.872,53.952 8.064,12.288 10.752,28.416 10.752,41.664 0,5.376 -1.344,8.448 -3.648,9.984 -1.152,0.768 -2.304,0.96 -4.032,0.96 h -8.064 v -106.56 z m 156.48,109.824 -1.344,1.344 c 11.904,9.792 27.264,25.728 34.944,39.744 27.84,11.52 38.976,-40.128 -33.6,-41.088 z m -76.416,-5.184 c -6.72,14.784 -21.888,34.176 -39.168,45.696 l 1.344,2.112 c 24.384,-4.8 46.848,-15.552 60.672,-28.032 4.416,0.576 6.336,-0.576 7.296,-2.304 z m -14.592,-30.72 1.536,5.376 h 125.568 c 2.88,0 4.992,-0.96 5.376,-3.072 -4.608,-3.84 -10.56,-8.64 -15.36,-12.288 9.024,-0.192 22.08,-5.184 22.272,-6.72 v -33.6 c 4.032,-0.768 6.336,-2.688 7.488,-4.224 l -25.152,-18.816 -12.096,13.248 h -11.712 v -19.392 h 52.416 c 2.88,0 4.992,-0.96 5.568,-3.072 -9.792,-7.488 -25.344,-18.048 -25.344,-18.048 l -13.632,15.744 h -136.896 l 1.536,5.376 h 54.144 v 19.392 h -10.176 l -29.376,-10.944 v 67.776 h 3.84 c 11.136,0 23.424,-5.76 23.424,-8.256 v -6.528 h 88.128 v 3.84 l -2.304,-1.728 -12.672,15.936 z m 59.328,-79.488 h 14.592 v 19.392 h -14.592 z m -23.616,56.064 h -12.288 v -31.296 h 12.288 z m 23.616,0 v -31.296 h 14.592 v 31.296 z m 38.592,0 v -31.296 h 13.632 v 31.296 z m -117.888,47.808 1.536,5.376 h 71.424 v 26.304 c 0,1.728 -0.768,2.88 -3.456,2.88 -4.032,0 -21.696,-0.96 -21.696,-0.96 v 2.112 c 9.984,1.728 13.248,4.608 15.936,7.872 2.88,3.648 3.456,9.216 4.032,17.088 29.376,-1.92 33.6,-11.52 33.6,-28.608 v -26.688 h 68.544 c 2.688,0 4.992,-0.96 5.568,-3.072 -9.792,-8.064 -25.536,-19.584 -25.536,-19.584 l -14.016,17.28 z"
       id="text79"
       aria-label="郵票"
       inkscape:label="upyo-han" />
    <path
       style="font-weight:500;font-size:48px;line-height:1.5;font-family:'Noto Sans';-inkscape-font-specification:'Noto Sans Medium';text-align:center;letter-spacing:15px;text-anchor:middle;fill:#3c1110;fill-rule:evenodd"
       d="m 455.228,410.26865 q 0,3.552 -1.488,6.432 -1.488,2.832 -4.512,4.512 -2.976,1.632 -7.584,1.632 -6.528,0 -9.936,-3.456 -3.36,-3.504 -3.36,-9.216 v -22.08 h 5.184 v 21.84 q 0,8.496 8.352,8.496 4.32,0 6.24,-2.304 1.968,-2.304 1.968,-6.24 v -21.792 h 5.136 z m 33.33605,-22.176 q 6.672,0 9.744,2.688 3.12,2.688 3.12,7.536 0,2.88 -1.296,5.424 -1.248,2.496 -4.224,4.08 -2.928,1.536 -8.016,1.536 h -3.696 v 13.008 h -5.232 v -34.272 z m -0.336,4.368 h -4.032 v 12.528 h 3.168 q 4.32,0 6.528,-1.44 2.208,-1.488 2.208,-5.04 0,-2.976 -1.92,-4.512 -1.872,-1.536 -5.952,-1.536 z m 44.56803,11.76 8.352,-16.128 h 5.664 l -11.424,20.976 v 13.296 h -5.232 v -13.104 l -11.376,-21.168 h 5.664 z m 62.85596,0.96 q 0,5.328 -1.824,9.312 -1.776,3.936 -5.328,6.144 -3.552,2.208 -8.832,2.208 -5.424,0 -8.976,-2.208 -3.504,-2.208 -5.28,-6.192 -1.728,-3.984 -1.728,-9.312 0,-5.28 1.728,-9.216 1.776,-3.936 5.328,-6.144 3.552,-2.208 8.976,-2.208 5.28,0 8.784,2.208 3.552,2.16 5.328,6.144 1.824,3.936 1.824,9.264 z m -26.448,0 q 0,6.144 2.496,9.696 2.544,3.504 7.968,3.504 5.472,0 7.968,-3.504 2.496,-3.552 2.496,-9.696 0,-6.144 -2.496,-9.648 -2.496,-3.504 -7.92,-3.504 -5.472,0 -8.016,3.504 -2.496,3.504 -2.496,9.648 z"
       id="text80"
       aria-label="UPYO"
       inkscape:label="upyo-latin" />
  </g>
  <text
     xml:space="preserve"
     style="font-style:normal;font-variant:normal;font-weight:normal;font-stretch:normal;font-size:74.6667px;font-family:Inter;-inkscape-font-specification:Inter;text-align:start;writing-mode:lr-tb;direction:ltr;text-anchor:start;fill:#3c1110;fill-opacity:1"
     x="91.972473"
     y="215.02296"
     id="text1"><tspan
       sodipodi:role="line"
       id="tspan1"
       x="91.972473"
       y="215.02296"
       style="font-style:normal;font-variant:normal;font-weight:bold;font-stretch:normal;font-size:74.6667px;font-family:Inter;-inkscape-font-specification:'Inter Bold';fill:#3c1110;fill-opacity:1">Upyo</tspan></text>
  <text
     xml:space="preserve"
     style="font-style:normal;font-variant:normal;font-weight:bold;font-stretch:normal;font-size:53.3333px;font-family:Inter;-inkscape-font-specification:'Inter Bold';text-align:start;writing-mode:lr-tb;direction:ltr;text-anchor:start;fill:#3c3c43;fill-opacity:1"
     x="91.972473"
     y="309.03299"
     id="text2"><tspan
       sodipodi:role="line"
       id="tspan2"
       x="91.972473"
       y="309.03299"
       style="font-size:53.3333px;fill:#3c3c43;fill-opacity:1">Simple and modern</tspan><tspan
       sodipodi:role="line"
       x="91.972473"
       y="375.69962"
       id="tspan3"
       style="font-size:53.3333px;fill:#3c3c43;fill-opacity:1">email sending library</tspan></text>
  <text
     xml:space="preserve"
     style="font-style:normal;font-variant:normal;font-weight:500;font-stretch:normal;font-size:26.6667px;font-family:Inter;-inkscape-font-specification:'Inter Medium';text-align:start;writing-mode:lr-tb;direction:ltr;text-anchor:start;fill:#3c3c43;fill-opacity:1"
     x="91.972473"
     y="448.04785"
     id="text4"><tspan
       sodipodi:role="line"
       id="tspan4"
       x="91.972473"
       y="448.04785">Universal interface for emailing across runtimes</tspan></text>
</svg>
