<?xml version="1.0" encoding="UTF-8" standalone="no"?>
<svg
  width="1024"
  height="1024"
  viewBox="0 0 1024 1024"
  version="1.1"
  id="svg79"
  sodipodi:docname="logo.svg"
  inkscape:version="1.4.2 (ebf0e940d0, 2025-05-08)"
  xmlns:inkscape="http://www.inkscape.org/namespaces/inkscape"
  xmlns:sodipodi="http://sodipodi.sourceforge.net/DTD/sodipodi-0.dtd"
  xmlns="http://www.w3.org/2000/svg"
  xmlns:svg="http://www.w3.org/2000/svg"
>
  <defs
    id="defs79"
  />
  <sodipodi:namedview
    id="namedview79"
    pagecolor="#ffffff"
    bordercolor="#000000"
    borderopacity="0.25"
    inkscape:showpageshadow="2"
    inkscape:pageopacity="0.0"
    inkscape:pagecheckerboard="0"
    inkscape:deskcolor="#d1d1d1"
    inkscape:zoom="0.99989318"
    inkscape:cx="543.55806"
    inkscape:cy="484.0517"
    inkscape:window-width="3072"
    inkscape:window-height="1659"
    inkscape:window-x="0"
    inkscape:window-y="0"
    inkscape:window-maximized="1"
    inkscape:current-layer="svg79"
  />
  <path
    fill="#3C1110"
    d="M280.857 27.389L329.021 27.5058C339.808 37.6195 350.813 51.7574 366.005 55.1344C380.03 58.2522 393.332 49.0142 402.909 39.7224C406.936 35.8156 410.829 30.904 415.568 27.9358C415.717 27.8426 415.869 27.7556 416.02 27.6656C432.468 26.9715 449.133 27.4933 465.606 27.4728C478.393 36.6605 487.545 52.5094 504.708 55.2582C526.813 58.7988 538.714 38.0839 553.48 27.8386C553.622 27.74 553.767 27.6456 553.911 27.5491C569.58 27.1584 585.339 27.5016 601.018 27.5298C613.14 37.553 623.601 52.4874 640.223 55.3011C654.483 57.7148 667.29 48.939 677.28 39.7729C681.538 35.8662 685.701 31.321 690.433 28.0294C690.593 27.9185 690.755 27.8122 690.916 27.7036C706.146 27.1619 721.93 27.0734 737.152 27.7238C749.674 36.9947 759.054 53.142 776.185 55.6889C791.492 57.9647 803.887 48.3302 814.226 38.3336C817.834 34.8443 821.329 30.9201 825.414 27.9979C825.581 27.8787 825.751 27.7648 825.92 27.6482C847.343 26.8601 869.03 27.5236 890.478 27.5815C908.775 27.6309 927.275 26.9835 945.538 27.6939C947.25 27.7605 950.566 27.661 952.011 28.6194C953.771 29.7867 955.731 31.8579 955.885 34.0691C956.033 36.1751 954.706 38.0542 953.19 39.3655C950.074 42.0619 945.515 43.7482 941.855 45.6058C933.7 49.7456 924.911 55.1676 918.761 62.0478C915.562 65.6271 913.119 70.0475 913.515 74.9892C914.54 87.8078 933.028 98.725 943.25 103.808C947.657 105.999 953.934 107.843 957.507 111.213C958.467 112.119 958.677 112.968 958.839 114.245C959.521 119.629 958.933 125.578 958.859 131.033C958.77 137.548 958.96 144.058 959.076 150.571C959.125 153.346 959.719 157.751 958.355 160.248C956.207 164.178 939.149 170.947 934.297 173.847C929.041 176.989 924.036 180.669 919.802 185.115C915.752 189.368 912.353 194.631 912.679 200.741C913.356 213.449 933.326 225.512 943.387 230.462C947.584 232.527 954.382 234.368 957.597 237.646C958.52 238.587 958.828 239.98 958.988 241.268C959.686 246.892 958.995 253.221 958.924 258.927C958.838 265.923 959.139 272.911 959.125 279.904C959.121 281.899 959.161 284.854 957.933 286.526C955.317 290.089 942.269 295.046 937.758 297.662C931.654 301.2 925.533 305.238 920.53 310.254C916.426 314.369 913.019 319.448 913.153 325.481C913.451 338.785 933.302 350.921 943.702 355.969C947.898 358.005 954.587 359.772 957.823 362.994C958.977 364.142 959.103 365.918 959.27 367.46C959.8 372.379 959.427 377.622 959.427 382.584L959.414 412.501C955.549 416.204 950.07 418.037 945.27 420.249C934.741 425.103 923.127 432.504 916.57 442.325C913.985 446.196 912.514 450.539 913.571 455.185C916.308 467.211 931.405 477.635 941.507 483.115C947.057 486.126 953.225 488.368 958.463 491.882C958.621 491.989 958.776 492.099 958.933 492.207C959.622 497.452 959.258 503.104 959.263 508.393L959.216 538.492C953.427 543.107 945.346 545.328 938.805 548.837C927.303 555.009 916.077 562.969 912.144 575.964C915.597 591.312 929.55 601.959 942.968 608.574C948.04 611.075 953.701 613.03 958.406 616.161C958.558 616.262 958.707 616.368 958.858 616.472C960.244 625.304 959.353 635.585 959.332 644.569C959.321 649.391 960.169 661.971 958.626 666.024C958.035 667.575 955.999 668.725 954.62 669.481C951.192 671.362 947.291 672.588 943.737 674.252C933.9 678.856 922.74 686.247 916.822 695.598C914.352 699.5 912.867 703.242 914.081 707.836C917.168 719.524 932.401 729.275 942.362 734.45C946.838 736.774 951.707 738.456 956.048 741.013C957.493 741.864 958.683 742.662 959.007 744.386C960.27 751.097 959.417 762.497 959.436 769.874C959.447 773.962 960.312 787.691 958.968 790.975C957.865 793.668 940.21 801.296 936.438 803.677C928.897 808.435 920.905 814.752 916.349 822.578C914.12 826.406 912.798 830.538 914.066 834.929C917.376 846.398 932.99 856.282 942.961 861.273C948.054 863.823 953.57 865.624 958.468 868.536C958.638 868.637 958.805 868.742 958.974 868.846C959.37 873.882 959.866 912.763 958.852 915.519C958.208 917.272 956.587 918.293 955.056 919.215C951.561 921.322 947.519 922.768 943.863 924.61C933.775 929.694 920.743 937.933 915.595 948.454C905.102 969.899 953.282 985.186 954.555 991.219C954.857 992.651 954.27 994.183 953.311 995.248C950.251 998.644 935.671 997.27 930.558 997.307C909.138 997.427 887.718 997.434 866.298 997.327C852.68 997.288 839.007 997.47 825.398 997.026C812.593 987.144 801.11 969.33 783.765 967.455C768.295 965.782 756.583 976.51 746.536 986.782C743.168 990.224 739.96 994.004 736.111 996.915C735.937 997.047 735.758 997.173 735.582 997.302C720.571 997.436 705.559 997.329 690.551 996.982C677.604 987.653 666.158 970.242 649.515 967.63C635.501 965.431 622.01 976.204 612.607 985.373C608.821 989.064 605.117 993.495 600.829 996.577C600.703 996.668 600.573 996.755 600.444 996.844C585.031 997.6 569.378 997.19 553.931 997.247C550.898 994.928 548.226 991.654 545.534 988.917C536.799 980.035 525.167 968.431 512.004 967.404C492.863 965.911 478.771 985.332 465.963 996.553L465.487 996.964C459.658 997.623 453.456 997.24 447.588 997.226C437.022 997.266 426.456 997.164 415.892 996.921C403.245 986.499 393.217 970.79 375.75 967.853C362.348 965.6 348.857 976.1 339.939 984.984C336.063 988.845 332.215 993.718 327.731 996.822C327.581 996.927 327.426 997.025 327.274 997.126C311.714 997.981 295.614 997.524 280.025 997.351C276.284 993.229 272.507 989.083 268.516 985.2C259.835 976.755 247.545 967.14 234.728 967.53C217.356 968.058 203.183 985.391 192.372 997.15L191.483 997.213C184.437 997.671 177.142 997.368 170.074 997.38L129.402 997.387L93.7395 997.309C87.0773 997.268 80.1342 997.553 73.5161 996.871C72.0419 996.72 70.8393 996.185 69.7664 995.177C68.6627 994.14 67.8639 992.976 67.9402 991.386C68.2392 985.159 83.2625 979.21 88.0492 976.196C92.0778 973.66 96.0386 970.792 99.2961 967.297C102.872 963.46 105.704 958.568 105.368 953.159C104.518 939.452 84.4294 928.343 73.6531 923.276C69.4723 921.31 63.47 919.719 60.1256 916.611C58.9422 915.511 58.9122 913.743 58.865 912.215C58.7119 907.262 58.7685 871.911 59.5906 869.904C60.107 868.643 61.2373 867.849 62.3624 867.17C65.3497 865.367 68.9888 864.285 72.2013 862.891C76.6524 860.956 80.9829 858.756 85.1693 856.3C90.5724 853.102 95.8132 849.17 100.003 844.467C103.755 840.256 106.247 835.245 105.775 829.48C104.614 815.296 85.5282 803.996 74.116 798.542C70.0042 796.577 63.557 794.914 60.339 791.803C57.8843 789.43 58.9211 755.131 58.9962 749.353C59.0234 747.263 58.8254 744.356 60.2043 742.68C63.447 738.738 75.5107 734.774 80.5234 732.057C86.7679 728.673 92.8102 724.671 97.8893 719.674C102.246 715.389 105.937 710.198 105.82 703.817C105.55 689.072 85.0556 677.433 73.4728 672.152C69.8587 670.504 62.59 668.648 59.9142 665.736C58.2526 663.928 58.7492 622.008 59.0602 616.58C62.6645 614.105 67.0143 612.532 70.9657 610.668C81.0424 605.914 91.6838 600.162 99.3249 591.871C103.241 587.622 106.511 582.256 106.103 576.267C105.13 562.01 84.473 550.532 73.0825 544.827C68.6706 542.617 63.2006 541.102 59.4162 537.895C57.6442 533.971 58.6304 505.338 58.7262 498.998C58.7558 497.043 58.5347 493.511 59.4302 491.788C60.6764 489.391 79.7746 480.576 83.509 478.256C88.7041 475.03 93.8171 471.36 98.1929 467.07C102.921 462.433 106.09 457.256 106.064 450.432C106.012 436.912 84.5182 425.02 74.1185 420.027C69.414 417.768 62.9914 416.302 59.2816 412.656C57.521 406.863 58.5882 395.268 58.6209 388.728C58.6454 383.824 57.8362 368.19 59.4274 364.832C62.0376 359.322 98.1643 348.602 104.909 330.124C114.002 305.211 61.4401 289.758 59.4012 284.883C57.7036 280.825 58.7854 268.36 58.8262 263.106C58.8591 258.856 58.2922 241.956 59.3282 239.342C61.5901 233.635 97.4069 222.809 104.797 204.869C115.148 179.742 61.563 164.691 59.2807 158.403C57.8676 154.509 58.774 139.602 58.7909 134.925C58.802 131.846 58.177 114.096 59.1907 112.171C62.4898 105.907 95.6167 97.9697 104.038 80.7225C116.399 55.409 70.2895 43.5469 68.2699 35.1369C67.8935 33.5696 68.5602 31.2176 69.5885 30.0084C72.4521 26.6412 79.7471 27.6912 83.8111 27.7534L193.826 27.5545C205.991 38.0365 219.325 55.8512 236.981 56.0618C254.968 56.2763 269.223 39.044 280.857 27.389Z"
    id="path2"
  />
  <path
    fill="#FAF8EC"
    d="M420.251 38.5137L461.351 38.5354C463.616 41.3945 466.225 44.0338 468.84 46.5692C480.249 57.632 494.028 67.8475 510.683 67.4389C530.285 66.9578 544.955 51.9347 557.568 38.6449C570.394 38.5835 583.22 38.6131 596.046 38.7336C598.386 41.0848 600.75 43.4116 603.139 45.7139C615.469 57.467 629.308 68.1989 647.219 67.5933C666.446 66.9432 681.75 52.2668 694.032 38.9537C706.985 38.5865 719.983 38.8152 732.94 38.8716L736.178 42.106C748.645 54.5248 762.684 67.99 781.497 67.8152C802.105 67.6237 816.449 52.5574 829.86 38.8854C862.781 38.5006 895.707 38.6751 928.622 39.4087C919.591 45.6132 909.705 52.8636 904.959 63.0796C902 69.45 901.577 76.6357 904.1 83.2236C910.481 99.8859 931.713 110.862 946.888 117.975C947.45 130.233 947.013 142.695 946.92 154.971C931.747 161.376 912.858 171.348 904.879 186.498C901.401 193.1 900.434 201.163 902.824 208.282C908.558 225.363 931.811 238.108 947.007 245.637L946.985 279.964C931.865 285.948 912.307 298.111 904.678 313.115C901.484 319.395 900.626 326.298 902.931 333.046C909.153 351.26 930.867 362.638 947.009 370.545L947.075 406.148C931.446 414.156 912.678 424.428 904.552 440.84C901.433 447.14 900.805 453.973 903.169 460.638C909.658 478.941 930.525 490.66 946.97 498.557C946.863 509.761 947.022 520.981 947.07 532.186C931.265 539.985 912.349 549.02 904.284 565.795C901.289 572.024 900.863 578.591 903.199 585.116C909.961 603.994 929.902 614.9 946.925 622.892L946.99 660.142C930.87 667.2 913.598 676.941 905.386 693.32C902.284 699.506 901.389 706.138 903.776 712.736C910.291 730.746 930.803 741.616 947.068 749.164L947.149 784.961C931.262 792.814 914.041 802.687 905.703 819.078C902.473 825.426 901.521 832.223 903.905 839.059C910.153 856.974 931.012 867.802 947.01 875.42L946.903 910.542C933.279 917.031 918.912 924.625 909.794 937.061C905.402 943.049 902.017 950.482 903.342 958.066C905.418 969.95 915.199 978.908 924.592 985.468L829.443 985.791C828.929 985.224 828.408 984.665 827.878 984.114C815.598 971.304 800.662 955.648 781.646 955.36C761.795 955.059 749.045 968.446 735.842 981.269C732.913 984.114 731.732 985.741 727.422 985.69C716.215 985.81 705.007 985.811 693.8 985.692C689.865 981.459 685.794 977.354 681.594 973.383C671.25 963.772 658.3 954.96 643.559 955.576C624.038 956.393 608.977 972.31 596.595 985.705C583.896 985.887 571.172 985.689 558.468 985.778C553.97 980.626 549.13 975.783 543.98 971.282C533.51 962.23 520.754 954.608 506.39 955.811C488.268 957.327 472.7 972.711 461.703 985.909L420.742 985.534C416.097 980.903 411.449 976.214 406.538 971.865C395.77 962.332 383.491 954.753 368.552 955.785C350.565 957.027 334.867 972.854 323.789 985.772C310.66 985.807 297.529 985.771 284.4 985.664C280.207 980.276 274.802 975.141 269.611 970.721C259.123 961.791 245.933 954.841 231.76 956.089C213.255 957.718 198.591 972.556 187.29 986.019L95.1848 985.913C102.558 980.229 110.943 973.825 114.987 965.174C118.102 958.51 118.319 951.326 115.584 944.498C108.666 927.224 88.0343 917.484 72.0967 910.503C71.7382 898.822 71.9775 887.074 71.9923 875.384C87.5878 868.577 106.953 859.404 114.954 843.374C118.295 836.681 118.886 829.093 116.432 821.984C110.095 803.625 88.3754 792.873 72.0785 784.944C71.8648 772.861 71.9376 760.756 71.8687 748.67C87.8339 741.733 105.72 733.091 114.487 717.097C118.057 710.585 118.909 703.115 116.653 696.007C110.677 677.182 88.2904 666.76 72.0987 658.485C71.9442 646.718 72.0419 634.938 72.0411 623.169C87.2938 615.317 106.382 606.466 114.67 590.596C118.083 584.06 118.997 576.489 116.634 569.439C110.378 550.779 88.3655 539.775 71.9754 531.561C71.6594 520.275 71.9662 508.894 71.9964 497.598C87.5562 488.534 106.462 480.922 115.034 463.803C118.373 457.271 118.92 449.665 116.552 442.722C110.443 424.846 87.8737 414.085 72.1382 406.284C71.753 394.249 72.0016 382.136 72.0098 370.092C87.1869 362.085 105.974 353.235 114.633 337.628C118.186 331.223 119.235 323.999 117.013 316.942C111.329 298.885 87.8884 286.989 72.0039 278.968C71.9558 267.509 71.9916 256.05 72.1113 244.591C86.9241 236.64 107.901 226.024 115.519 210.381C118.649 203.953 119.069 197.198 116.689 190.448C110.511 172.927 87.9885 161.011 72.1186 153.512C71.7746 141.598 71.744 129.419 72.2371 117.51C85.4036 111.486 100.2 103.761 109.745 92.709C115.142 86.4608 118.762 78.6578 117.938 70.2266C116.565 56.19 104.396 47.3455 94.4114 39.0316L189.307 38.9383L197.34 46.8001C208.713 57.8487 221.927 68.0738 238.603 67.7012C258.714 67.2518 272.585 52.0978 285.533 38.5984C298.206 38.567 310.879 38.6159 323.552 38.745C336.696 52.2092 351.594 67.246 371.671 67.6428C392.929 68.0629 406.317 52.0753 420.251 38.5137Z"
    id="path3"
  />
  <path
    fill="#3C1110"
    d="M164.369 96.5971C174.376 96.2112 184.481 96.4728 194.5 96.4722L248.97 96.4786L414.671 96.5808L862.987 96.957L863.002 676.353L862.976 845.542L863.001 896.927C863.008 904.853 863.767 913.394 862.869 921.23C861.654 922.06 860.566 921.827 859.125 921.87L165.055 921.595C163.12 920.248 161.972 918.963 160.659 916.995C160.181 891.426 160.454 865.79 160.462 840.214L160.52 707.284L160.452 310.735L160.465 154.172L160.473 115.487C160.475 111.038 159.706 105.064 160.645 100.829C161.128 98.6485 162.628 97.7534 164.369 96.5971Z"
    id="path4"
  />
  <path
    fill="#FAF8EC"
    d="M173.427 106.748L852.589 107.044L852.485 910.938L636.994 911.32L541.466 911.468C521.711 911.455 501.927 911.652 482.182 910.964C485.161 907.995 488.794 905.916 492.52 904.031C500.303 900.096 508.519 896.81 516.506 893.308L571.765 869.492C641.002 839.275 710.48 809.613 780.191 780.508L804.555 770.328C808.867 768.52 813.679 766.92 817.661 764.498C819.125 763.608 819.581 762.917 819.907 761.239C820.632 757.5 819.935 753.122 819.814 749.304C819.384 735.709 819.949 728.489 812.344 716.422C815.151 711.538 817.839 706.588 820.407 701.574C824.671 702.875 828.506 704.169 832.837 702.16C834.927 701.191 836.659 699.488 837.449 697.303C838.231 695.142 838.016 692.76 837.041 690.698C834.953 686.282 831.125 685.053 826.862 683.588C827.546 680.704 828.113 677.846 828.396 674.891C829.564 662.711 827.57 652.631 819.74 643.074C819.196 639.567 818.585 636.036 817.323 632.704C813.444 622.46 805.138 616.478 795.494 612.096C800.682 593.552 814.523 572.002 826.83 557.408C829.45 554.302 841.954 542.312 842.247 539.949C842.323 539.327 841.657 538.268 841.253 537.765C839.299 535.332 806.042 525.585 801.075 523.967C771.341 514.373 741.674 504.573 712.076 494.569C686.508 485.74 660.895 477.045 635.237 468.483C627.858 465.956 588.952 451.407 584.761 451.631C584.52 451.644 584.28 451.688 584.046 451.748C581.29 452.445 578.893 461.759 577.897 464.501C569.802 486.777 558.722 509.727 540.63 525.541C539.334 523.524 538.018 521.531 536.448 519.712C528.699 510.735 516.285 505.933 504.684 505.058C492.313 504.124 482.447 507.316 473.05 515.378C466.171 512.569 434.58 503.077 427.83 504.922C420.833 506.833 414.685 513.364 411.122 519.484C407.383 525.904 405.378 534.41 407.443 541.693C409.174 547.799 413.397 550.431 418.551 553.399C403.4 558.688 388.394 564.418 373.273 569.798C359.522 574.689 344.34 578.951 331.711 586.373C325.254 590.168 319.061 595.212 315.355 601.839C310.968 609.685 308.309 619.476 305.152 627.973C299.822 642.576 294.134 657.045 288.092 671.368C283.235 682.745 278.094 697.636 268.605 705.991C262.215 711.617 253.66 715.265 246.193 719.241L201.159 743.072C193.915 746.864 185.732 750.21 179.017 754.815C176.872 756.286 174.642 758.169 173.397 760.493C170.536 765.837 177.083 781.462 178.78 787.602C176.293 786.052 173.727 784.639 171.174 783.203C170.461 752.749 171.093 722.206 171.064 691.74L170.941 504.143L170.923 244.253C170.948 200.28 170.448 156.229 171.03 112.267C171.051 110.633 170.813 108.284 171.713 106.925L173.427 106.748Z"
    id="path5"
  />
  <path
    fill="#FAF8EC"
    d="M632.707 282.601C641.041 281.763 648.363 283.202 655.313 287.984C665.012 294.657 670.136 306.969 672.165 318.188C674.528 331.25 673.666 347.084 665.779 358.27C660.573 365.656 653.533 368.881 644.916 370.36C637.579 371.188 630.209 369.76 623.876 365.937C614.139 360.06 608.202 349.764 605.601 338.913C602.371 325.442 603.893 308.654 611.385 296.776C616.415 288.801 623.66 284.599 632.707 282.601Z"
    id="path7"
  />
  <path
    fill="#FAF8EC"
    d="M476.781 550.509C476.918 550.485 477.053 550.442 477.192 550.438C479.817 550.359 484.569 556.305 486.465 558.28C475.457 564.862 462.439 567.738 451.806 575.095C444.105 580.423 438.652 587.697 436.999 597.028C434.929 608.708 439.559 620.719 446.214 630.167C460.153 649.956 485.703 659.224 508.75 663.106C548.417 669.789 608.877 665.355 642.223 641.642C648.414 643.211 654.513 646.023 660.432 648.418C670.805 652.565 681.106 656.893 691.33 661.399C676.411 668.57 661.27 675.4 646.25 682.367C637.1 686.611 627.698 690.658 619.014 695.813C605.441 703.872 585.833 720.004 576.55 732.785C570.6 740.979 566.156 750.138 561.315 759.002C554.25 771.742 547.351 784.573 540.62 797.491C535.478 807.224 526.856 823.871 520.166 832.065C478.893 808.515 436.083 788.129 393.815 766.507L344.398 741.844C329.506 734.244 315.397 726.124 299.511 720.502C295.396 719.045 290.451 718.858 286.118 718.336C288.484 712.994 291.247 707.838 293.544 702.46C301.221 684.49 308.091 666.129 315.284 647.959C319.689 636.833 323.156 624.908 328.526 614.24C331.663 608.009 336.96 603.484 342.736 599.738C354.843 591.887 369.009 587.012 382.44 581.941C402.095 574.52 421.742 567.448 441.773 561.079C453.388 557.386 465.218 554.336 476.781 550.509Z"
    id="path17"
  />
  <path
    fill="#3C1110"
    d="M326.693 693.696C329.676 693.541 332.663 693.898 335.525 694.753C341.083 696.419 344.73 699.567 347.441 704.616C347.483 707.737 347.225 710.542 346.648 713.61C352.36 711.425 358.01 710.02 364.168 710.601C369.247 711.081 374.737 712.92 378.018 717.026C381.317 721.155 380.942 725.425 380.385 730.32C387.15 727.405 394.474 726.041 401.726 727.929C406.036 729.051 410.63 731.282 412.881 735.327C414.811 738.798 414.516 741.776 413.567 745.487C419.942 742.985 426.557 741.996 433.299 743.617C437.863 744.715 442.527 747.068 444.89 751.311C447.284 755.61 446.41 759.58 445.111 763.998C451.044 761.643 457.389 760.32 463.781 761.135C468.756 761.77 474.275 763.679 477.4 767.833C480.361 771.767 480.055 775.843 479.288 780.396L479.924 780.193C488.329 777.561 497.771 776.764 505.775 781.151C509.226 783.043 512.123 785.985 513.176 789.857C514.105 793.275 513.614 796.763 511.855 799.831C508.32 805.997 501.505 808.529 495.007 810.204C492.792 810.467 490.475 810.609 488.253 810.402C482.188 809.835 474.731 807.577 470.821 802.675C467.905 799.019 468.477 795.846 468.891 791.521C466.723 790.698 461.303 792.909 458.662 792.943C455.351 792.986 451.653 792.449 448.488 791.491C443.91 790.107 439.203 787.381 436.995 782.958C435.122 779.208 435.715 776.265 437.053 772.481C433.245 773.84 429.324 774.93 425.274 775.193C418.922 775.606 411.587 773.725 406.816 769.349C403.16 765.996 402.373 762.636 402.278 757.897C396.523 759.113 390.969 759.469 385.176 758.251C380.494 757.267 375.301 755.358 372.668 751.096C370.21 747.116 370.963 743.536 371.887 739.263C367.519 741.28 363.074 742.493 358.249 742.557C352.156 742.636 345.101 740.916 340.719 736.484C336.822 732.541 336.802 728.811 336.96 723.647C334.45 724.479 331.947 725.249 329.346 725.751C322.717 727.029 315.342 726.209 309.741 722.211C306.599 719.968 304.126 716.649 303.631 712.742C303.147 708.919 304.44 705.165 306.857 702.211C311.704 696.284 319.439 694.403 326.693 693.696Z"
    id="path18"
  />
  <path
    fill="#FAF8EC"
    d="M491.389 783.209C495.567 783.082 500.255 783.455 503.847 785.77C505.993 787.153 507.647 789.273 508.037 791.837C508.393 794.181 507.641 796.482 506.24 798.362C502.672 803.153 496.669 804.549 491.072 805.236C486.367 805.033 481.289 804.222 477.47 801.251C475.586 799.786 474.076 797.74 473.815 795.312C473.561 792.952 474.498 790.742 476.02 788.977C479.909 784.469 485.804 783.574 491.389 783.209Z"
    id="path19"
  />
  <path
    fill="#FAF8EC"
    d="M324.833 699.11C329.685 698.601 335.584 699.019 339.427 702.338C341.133 703.812 342.251 705.842 342.376 708.11C342.525 710.806 341.334 713.359 339.573 715.342C335.938 719.435 331.3 720.402 326.125 720.753C321.984 720.936 317.842 720.652 314.115 718.655C311.755 717.391 309.671 715.381 308.972 712.723C308.412 710.594 308.877 708.407 310.065 706.58C313.248 701.689 319.445 700.097 324.833 699.11Z"
    id="path20"
  />
  <path
    fill="#FAF8EC"
    d="M456.827 766.165C461.584 765.886 467.243 766.241 471.282 768.989C473.19 770.287 474.61 772.214 474.958 774.525C475.308 776.847 474.442 779.268 473.051 781.11C469.729 785.514 464.735 786.585 459.617 787.4C454.737 787.572 449.943 787.361 445.674 784.654C443.471 783.257 441.509 781.082 440.997 778.454C440.564 776.226 441.175 774.074 442.533 772.283C445.862 767.89 451.695 766.822 456.827 766.165Z"
    id="path21"
  />
  <path
    fill="#FAF8EC"
    d="M423.155 748.112C427.599 747.79 432.719 748.178 436.601 750.532C438.844 751.892 440.633 753.945 441.181 756.558C441.704 759.047 441.013 761.565 439.528 763.6C436.221 768.131 430.827 769.212 425.621 769.863C421.386 770.02 416.707 769.427 412.979 767.313C410.499 765.907 408.342 763.711 407.742 760.84C407.335 758.899 407.837 756.88 408.934 755.249C411.966 750.739 418.127 749.118 423.155 748.112Z"
    id="path22"
  />
  <path
    fill="#FAF8EC"
    d="M359.679 715.68C363.99 715.769 369.237 716.191 372.714 719.004C374.503 720.452 375.638 722.4 375.815 724.71C375.999 727.104 375.031 729.389 373.5 731.194C369.73 735.638 364.126 736.779 358.636 737.364C354.386 737.277 349.249 736.573 345.786 733.911C343.958 732.506 342.663 730.623 342.437 728.291C342.211 725.951 343.152 723.714 344.635 721.943C348.388 717.459 354.183 716.314 359.679 715.68Z"
    id="path23"
  />
  <path
    fill="#FAF8EC"
    d="M393.596 732.19C397.495 732.294 401.584 732.702 404.957 734.85C407.181 736.266 408.901 738.39 409.326 741.037C409.738 743.593 408.893 746.077 407.262 748.053C403.76 752.297 398.342 753.178 393.176 753.543C388.56 753.533 383.516 753.066 379.67 750.25C377.797 748.878 376.428 746.903 376.143 744.565C375.857 742.215 376.711 739.929 378.214 738.139C381.955 733.682 388.142 732.724 393.596 732.19Z"
    id="path24"
  />
  <path
    fill="#3C1110"
    d="M426.335 670.378C430.634 671.009 430.327 674.706 433.86 676.133L438.97 678.172C443.605 680.067 447.256 676.166 451.371 677.582C452.31 677.905 452.955 678.746 453.294 679.662C454.02 681.621 453.671 682.989 452.759 684.778C452.403 685.476 451.698 686.571 451.865 687.399C452.512 690.614 454.049 694.022 454.836 697.318C455.008 697.365 455.18 697.411 455.352 697.461L456.206 697.715C459.218 698.589 462.588 700.135 463.95 703.224C464.448 704.352 464.355 705.586 463.801 706.67C463.015 708.212 462.165 708.72 460.553 709.15C460.403 709.19 459.313 709.435 459.143 709.548C458.104 710.237 458.126 712.143 457.917 713.295C453.862 717.681 450.302 712.178 446.157 712.969C446.113 714.102 446.21 715.783 445.701 716.806C444.8 718.616 442.319 719.792 440.635 720.667C435.739 721.284 435.336 717.902 432.379 717.885C431.501 719.6 430.674 721.476 428.864 722.273C426.986 721.574 426.568 719.274 425.22 717.968C423.336 716.142 419.544 716.854 417.423 714.672C416.838 714.07 416.997 713.758 416.959 712.982C418.349 710.105 420.989 708.419 423.599 706.766C421.597 704.682 419.636 703.14 417.229 701.539C414.07 699.437 408.29 695.752 408.032 691.542C407.96 690.378 408.127 689.479 409.012 688.656C411.557 686.289 415.995 686.981 419.149 687.137L423.763 683.958C422.407 681.893 421.158 679.866 421.457 677.292C421.811 674.235 424.095 672.225 426.335 670.378Z"
    id="path25"
  />
  <path
    fill="#FAF8EC"
    d="M435.187 703.98C438.918 704.492 440.257 705.839 442.744 708.457C442.647 710.511 442.794 713.387 441.929 715.265C441.245 716.754 440.564 716.867 439.145 717.48C436.788 716.731 434.232 715.895 432.711 713.817C431.537 712.214 430.953 710.71 431.4 708.707C431.854 706.668 433.533 705.081 435.187 703.98Z"
    id="path26"
  />
  <path
    fill="#FAF8EC"
    d="M446.485 692.516C448.146 693.811 449.967 697.031 451.362 698.794C449.988 700.58 448.234 703.75 446.262 704.829L445.348 704.226C443.186 703.525 440.12 702.851 438.923 700.681C438.316 699.581 438.197 698.433 438.69 697.265C439.907 694.383 443.825 693.472 446.485 692.516Z"
    id="path27"
  />
  <path
    fill="#FAF8EC"
    d="M425.353 688.688C427.125 688.842 429.016 689.46 430.157 690.919C432.899 694.422 428.518 700.431 427.916 704.288C427.885 704.488 427.859 704.688 427.831 704.888C426.201 702.407 423.642 700.265 421.575 698.111C422.331 694.565 422.741 691.398 425.353 688.688Z"
    id="path28"
  />
  <path
    fill="#FAF8EC"
    d="M434.974 679.744C436.088 680.279 440.883 683.328 441.608 684.072C442.421 684.906 443.183 685.986 443.087 687.198C442.902 689.553 441.446 690.543 439.717 691.886L435.455 694.087C434.229 691.468 433.415 688.669 432.513 685.926L434.974 679.744Z"
    id="path29"
  />
  <path
    fill="#FAF8EC"
    d="M454.043 700.445C455.672 700.604 457.286 700.908 458.697 701.804C459.852 702.537 460.022 703.192 460.31 704.463L459.357 705.878L451.601 704.419L454.043 700.445Z"
    id="path30"
  />
  <path
    fill="#FAF8EC"
    d="M411.352 690.991C413.403 691.056 416.007 690.814 417.818 691.842C418.731 693.309 418.38 694.082 418.224 695.77C416.768 695.632 415.247 695.531 413.926 694.844C412.288 693.993 411.842 692.624 411.352 690.991Z"
    id="path31"
  />
  <path
    fill="#FAF8EC"
    d="M426.312 674.199C427.521 674.713 428.547 675.44 429.071 676.701C429.886 678.659 429.106 680.301 428.249 682.048C427.064 681.622 426.131 680.698 425.711 679.492C425.048 677.585 425.552 675.961 426.312 674.199Z"
    id="path32"
  />
  <path
    fill="#FAF8EC"
    d="M449.017 708.665C451.19 708.396 452.876 708.108 454.691 709.506L454.782 710.775C452.667 710.652 450.496 710.545 448.567 709.619L449.017 708.665Z"
    id="path33"
  />
  <path
    fill="#FAF8EC"
    d="M716.523 672.44C717.662 673.644 717.101 684.983 717.342 687.49C718.258 697.02 721.451 706.894 729.232 713.021C734.627 717.269 741.64 719.544 748.471 718.609C755.324 723.09 762.329 724.342 770.378 724.794C765.346 727.857 759.398 729.997 754.043 732.481L719.317 748.572C713.251 751.387 706.813 753.973 701.002 757.27C710.707 754.956 720.251 750.869 729.532 747.26C744.531 741.397 759.474 735.393 774.36 729.249C779.011 730.581 783.377 730.953 788.189 731.152C774.398 735.919 760.892 742.786 747.577 748.792C723.909 759.467 700.087 770.236 676.871 781.861C685.969 779.432 694.947 775.729 703.722 772.328C724.095 764.431 743.966 755.576 764.014 746.916C775.201 742.084 790.113 736.945 800.32 730.804C803.852 728.679 806.781 725.179 809.689 722.266C811.899 726.32 812.987 730.599 814.116 735.047C793.734 743.953 642.27 807.344 636.999 812.8C654.489 807.993 672.789 800.001 689.597 793.125L761.623 763.21C779.193 756.178 796.431 748.33 814.065 741.428C814.424 747.603 814.442 753.823 814.579 760.007C795.442 767.371 776.634 776.164 757.709 784.106C707.447 805.169 657.313 826.535 607.309 848.205L528.849 882.247C514.336 888.524 498.492 894.105 484.794 902.001C479.685 904.946 476.294 909.627 473.247 914.523C466.654 914.795 460.061 915.029 453.466 915.226C453.82 906.388 453.429 898.812 450.602 890.399C464.822 880.221 484.17 870.693 500.061 862.855C510.1 857.904 523.224 853.883 531.467 846.158C542.648 835.679 557.443 809.266 565.83 795.425C575.526 779.424 584.22 762.021 595.347 747C606.892 731.415 623.735 717.125 640.667 707.767C650.388 702.394 660.765 698.07 670.847 693.421L716.523 672.44Z"
    id="path34"
  />
  <path
    fill="#FAF8EC"
    d="M586.215 457.193C597.758 460.509 609.217 465.144 620.548 469.139L675.097 487.812L835.139 540.66C813.162 563.129 802.083 581.331 790.172 610.499C785.013 609.096 780.224 608.367 774.882 608.611C763.123 609.807 752.255 614.929 743.393 622.61C736.589 619.401 729.292 616.877 722.316 614.031C722.749 611.103 723.452 608.245 721.813 605.54C719.645 601.962 715.926 600.237 711.95 599.423C706.269 598.259 702.506 599.635 697.868 602.696C678.561 596.277 659.138 587.645 640.094 580.219L586.167 559.065C574.858 554.681 563.392 550.568 552.174 545.966C550.501 545.28 548.012 544.43 546.794 543.07C547.169 538.689 544.057 534.803 541.904 531.195C564.051 515.537 576.652 481.6 586.215 457.193Z"
    id="path35"
  />
  <path
    fill="#FAF8EC"
    d="M171.178 789.627C180.068 793.004 188.851 798.455 197.367 802.776C213.905 811.223 230.546 819.468 247.286 827.51L376.299 888.595L406.661 903.07C411.433 905.362 418.721 907.876 422.62 911.356L315.569 911.425L171.054 911.318C170.636 870.803 170.727 830.139 171.178 789.627Z"
    id="path36"
  />
  <path
    fill="#FAF8EC"
    d="M499.263 510.21C500.324 510.195 501.385 510.204 502.445 510.237C514.529 510.649 524.888 514.742 533.055 523.788C534.015 524.85 534.901 525.775 534.808 527.248C532.527 527.017 530.48 526.851 528.277 527.617C522.779 529.53 519.26 534.9 516.862 539.905C514.336 538.401 511.937 536.668 509.372 535.229C507.325 534.08 505.607 533.255 503.243 533.891C502.268 534.85 502.215 534.805 502.122 536.158C504.671 540.287 512.294 543.616 516.268 546.673C516.411 550.945 515.882 555.151 518.88 558.592C521.226 561.285 524.92 562.573 528.417 562.693C532.304 562.826 534.865 561.801 537.678 559.185C553.716 564.726 569.13 571.566 584.919 577.724L692.221 619.374C692.276 619.837 692.339 620.299 692.384 620.763C692.59 622.919 692.583 624.198 694.124 625.843C696.703 628.595 700.564 630.657 704.382 630.72C707.309 630.768 709.182 629.197 711.194 627.274C718.294 629.8 725.161 632.961 732.226 635.599L725.292 646.79C721.086 648.348 716.968 650.119 712.838 651.865C707.647 654.288 702.413 656.619 697.14 658.856C685.794 652.669 673.34 648.119 661.399 643.172C655.352 640.667 648.725 637.215 642.347 635.765C640.575 636.033 639.518 637.248 638.236 638.395C630.994 634.802 623.322 631.949 615.835 628.895C604.541 624.288 593.304 619.648 581.744 615.737C582.809 612.921 585.008 609.694 585.186 606.692C585.354 603.856 583.711 601.085 581.792 599.126C577.297 594.539 570.128 591.727 563.732 591.818C560.807 591.859 551.858 593.846 550.403 596.729C549.769 597.987 550.273 599.037 549.153 600.152C541.032 598.409 532.624 594.349 524.856 591.308C511.093 585.921 497.204 580.654 483.687 574.674C486.021 565.646 489.18 564.804 491.999 558.093C492.03 556.304 491.648 555.149 490.518 553.732C483.66 545.137 470.319 541.64 460.013 540.378C463.341 534.786 467.489 529.336 471.706 524.399C479.739 514.997 486.928 511.161 499.263 510.21Z"
    id="path37"
  />
  <path
    fill="#3C1110"
    d="M495.819 522.601C499.549 522.26 507.58 521.507 510.748 523.659C511.727 524.324 512.296 524.829 512.486 526.026C510.103 528.696 496.624 526.547 490.021 531.286C489.853 531.407 489.687 531.532 489.52 531.655C487.35 534.302 487.422 537.359 485.739 539.509C484.879 540.608 484.476 540.746 483.202 541.053C482.491 540.49 482.237 540.447 481.921 539.548C481.038 537.039 482.069 533.858 483.292 531.637C486.055 526.617 490.524 524.176 495.819 522.601Z"
    id="path38"
  />
  <path
    fill="#FAF8EC"
    d="M178.29 765.828C190.052 768.526 201.114 774.532 211.976 779.652C229.126 787.69 246.123 796.054 262.956 804.739C289.765 818.108 316.652 831.319 343.617 844.372C364.343 854.383 385.026 864.588 405.876 874.334C417.405 879.723 435.954 887.176 446.09 893.939C448.732 901.242 448.376 908.158 447.88 915.775C438.877 913.753 429.549 908.045 421.251 903.996L386.11 887.126L184.771 790.625C183.101 782.215 179.902 774.223 178.29 765.828Z"
    id="path39"
  />
  <path
    fill="#FAF8EC"
    d="M275.093 775.938C278.387 775.981 284.442 779.719 287.49 781.159C298.149 786.195 308.582 791.69 319.17 796.87L384.769 828.523C409.419 840.398 434.742 851.462 458.813 864.447C454.852 866.934 434.766 880.403 431.356 880.315C398.31 864.889 365.759 848.508 332.839 832.836C314.403 824.12 296.081 815.163 277.88 805.966C267.184 800.674 256.042 795.703 245.734 789.713C255.655 785.415 265.446 780.821 275.093 775.938Z"
    id="path40"
  />
  <path
    fill="#FAF8EC"
    d="M269.365 722.498L269.761 722.921C267.731 724.527 265.699 726.239 264.176 728.35C262.04 731.309 261.212 734.553 261.933 738.155C263.831 747.64 276.47 750.981 284.897 750.558C287.06 750.45 292.192 749.106 294.031 749.718C294.299 749.807 294.922 752.404 294.999 752.691C296.076 756.672 298.143 759.722 301.631 761.996C308.927 766.752 318.337 766.256 326.484 764.621C326.117 766.562 325.829 768.62 326.373 770.555C327.454 774.406 330.513 777.251 333.94 779.093C341.357 783.082 349.245 783.018 357.155 780.807C357.246 782.881 357.246 785.043 358.098 786.973C360.085 791.476 364.053 794.434 368.578 796.107C376.825 799.158 384.707 798.044 392.596 794.586C391.812 798.161 391.14 801.202 392.471 804.773C393.893 808.591 396.957 811.146 400.584 812.811C409.124 816.733 418.482 815.864 427.005 812.528C426.816 813.678 426.615 814.844 426.541 816.008C426.326 819.383 428.062 822.884 430.311 825.311C434.558 829.893 441.073 831.657 447.146 831.829C454.174 832.029 461.76 830.126 466.897 825.101C470.952 821.134 471.87 817.126 471.969 811.715C486.448 819.727 501.369 827.005 515.49 835.634C503.415 842.751 490.792 848.825 477.993 854.517C473.039 852.424 468.109 850.275 463.204 848.068C443.562 839.194 424.486 829.098 405.073 819.732C361.782 798.98 318.647 777.905 275.672 756.507C268.213 760.587 260.359 764.157 252.705 767.873C244.09 772.055 235.484 776.43 226.654 780.138C215.397 775.527 203.589 770.277 192.996 764.336C218.298 750.124 243.975 736.554 269.365 722.498Z"
    id="path41"
  />
  <path
    fill="#FAF8EC"
    d="M720.958 654.546C720.982 654.567 721.017 654.581 721.03 654.61C721.875 656.461 719.189 663.914 718.628 666.312C711.619 668.642 704.872 671.986 698.165 675.066L669.237 688.341C658.192 693.375 646.593 698.011 636.027 703.99C617.908 714.244 600.13 730.725 588.155 747.763C577.603 762.774 569.124 779.524 559.639 795.255C551.64 808.522 538.69 832.057 527.856 842.154C520.385 849.117 501.225 856.232 491.351 861.321C475.916 869.275 460.561 877.507 445.933 886.876L441.079 885.109C440.106 884.714 439.388 884.304 438.552 883.668C441.549 880.399 447.273 877.888 451.167 875.596C459.764 870.534 468.385 865.528 477.287 861.016C488.342 855.413 515.928 843.818 523.496 836.611C530.248 830.182 545.586 798.755 550.896 788.989C560.962 770.479 572.203 746.304 585.502 730.256C593.594 720.491 607.664 709.207 618.368 702.474C633.923 692.69 651.861 685.337 668.541 677.667C685.806 669.728 703.123 661.122 720.958 654.546Z"
    id="path42"
  />
  <path
    fill="#FAF8EC"
    d="M800.744 640.607C802.578 640.475 804.488 640.279 806.307 640.621C811.502 641.599 815.511 645.299 818.26 649.641C823.994 658.696 823.985 671.393 821.713 681.536C817.596 679.749 813.523 677.863 809.497 675.878C808.52 674.168 807.564 672.321 806.36 670.76C804.577 668.449 801.571 666.628 798.642 666.39C795.476 666.133 792.638 667.565 790.348 669.661C785.517 674.083 782.239 681.771 781.961 688.293C781.821 691.58 782.553 695.168 784.938 697.588C787.103 699.786 791.369 701.692 794.486 701.56C798.234 701.4 800.371 698.669 802.664 696.057C803.448 696.007 804.171 696.04 804.944 696.189C807.265 696.638 813.058 698.196 814.387 700.073L813.917 701.705C812.885 703.575 811.803 705.418 810.672 707.231C805.744 715.178 798.337 722.695 788.889 724.742C783.132 726.02 777.103 724.88 772.211 721.587C765.66 717.147 762.007 709.014 760.494 701.462C757.799 688.007 761.72 673.394 769.255 662.121C776.942 650.62 787.146 643.272 800.744 640.607Z"
    id="path43"
  />
  <path
    fill="#FAF8EC"
    d="M484.26 580.668C491.045 582.57 497.93 586.18 504.47 588.864C519.162 594.894 534.162 601.053 549.227 606.059C547.383 620.84 545.263 635.574 543.627 650.382C543.5 652.67 543.125 654.958 542.825 657.229C515.033 639.254 494.335 612.196 484.26 580.668Z"
    id="path44"
  />
  <path
    fill="#FAF8EC"
    d="M481.841 650.224C481.298 650.027 480.753 649.833 480.218 649.615C465.499 643.603 451.157 631.705 444.992 616.768C441.734 608.873 440.693 599.71 444.179 591.699C449.037 580.537 459.027 576.434 469.494 572.113C469.898 574.976 470.329 577.834 470.787 580.689C476.135 613.264 497.851 641.043 524.112 659.949C521.818 659.683 519.096 659.597 516.909 658.878C512.801 657.529 508.587 653.351 505.42 650.513C486.673 633.717 475.514 616.186 463.705 594.25C469.094 618.937 485.946 640.977 504.736 657.173C500.573 655.76 495.624 655.261 491.796 653.061C480.935 646.816 460.834 619.351 453.756 608.137L452.944 609.905C459.73 625.158 469.862 638.673 481.841 650.224Z"
    id="path45"
  />
  <path
    fill="#6F411E"
    d="M449.594 601.499C451.101 603.671 452.5 605.804 453.756 608.137L452.944 609.905C451.572 607.157 450.57 604.406 449.594 601.499Z"
    id="path46"
  />
  <path
    fill="#FAF8EC"
    d="M457.167 546.603C460.651 546.204 464.888 545.962 468.192 547.22L468.082 547.847C463.547 550.041 453.452 551.839 447.989 553.524C432.376 558.493 416.851 563.731 401.42 569.237C380.133 576.851 346.646 587.557 330.41 602.782C327.378 605.626 325.063 609.361 323.235 613.067C319.179 621.289 316.25 630.462 312.943 639.03C303.959 662.304 295.658 686.458 285 708.998C267.799 716.505 251.394 726.104 235.007 735.245L189.759 760.068L183.409 763.521L180.953 761.096C180.686 759.787 180.802 759.981 181.814 759.222C187.431 755.004 196.243 751.462 202.593 748.167L242.902 726.824C251.928 722.032 261.708 717.507 270.019 711.543C273.461 709.073 276.136 706.033 278.483 702.532C286.025 691.281 291.237 677.62 296.301 665.111C301.216 653.158 305.904 641.114 310.363 628.984C313.403 620.653 315.943 610.252 320.784 602.843C324.813 596.675 330.529 592.796 336.941 589.39C350.925 581.961 367.414 577.473 382.293 572.035C398.184 566.081 414.167 560.374 430.235 554.917C439.059 551.908 448.033 548.505 457.167 546.603Z"
    id="path47"
  />
  <path
    fill="#FAF8EC"
    d="M776.618 613.693C782.953 613.376 790.419 615.789 796.098 618.437C805.472 622.807 810.319 629.07 813.876 638.657C806.167 632.691 796.413 627.291 786.561 626.298C775.387 625.173 765.158 629.319 756.654 636.412C742.518 648.203 735.542 666.282 733.995 684.229C733.817 695.562 736.586 704.651 743.488 713.665C739.798 712.854 736.445 711.814 733.385 709.513C726.811 704.571 723.836 695.874 722.852 687.987C720.394 668.278 727.934 649.152 740.085 633.84C749.405 622.096 761.74 615.323 776.618 613.693Z"
    id="path48"
  />
  <path
    fill="#FAF8EC"
    d="M779.294 631.623C785.964 631.157 791.989 632.196 797.9 635.371C794.807 636.231 791.708 637.208 788.768 638.504C774.215 644.923 763.575 657.631 758.026 672.378C752.489 687.095 753.052 701.349 759.464 715.621C759.854 716.321 760.201 717.038 760.556 717.755L760.029 718.297C757.725 717.935 755.475 716.62 753.544 715.335C746.165 710.423 741.761 702.678 740.112 694.081C737.329 679.577 742.543 662.788 750.764 650.836C757.618 640.871 767.383 633.89 779.294 631.623Z"
    id="path49"
  />
  <path
    fill="#FAF8EC"
    d="M580.818 620.182C598.446 626.905 615.578 634.911 633.24 641.538C627.781 644.963 621.629 647.282 615.616 649.532C601.713 654.165 587.342 657.251 572.763 658.735C575.106 645.815 577.792 632.959 580.818 620.182Z"
    id="path50"
  />
  <path
    fill="#FAF8EC"
    d="M543.726 548.147C594.089 567.459 643.952 588.164 694.483 607.039C693.177 609.253 692.355 611.341 691.577 613.767C676.627 606.974 660.919 601.455 645.643 595.42L540.943 554.279C541.764 552.208 542.8 550.177 543.726 548.147Z"
    id="path51"
  />
  <path
    fill="#FAF8EC"
    d="M430.899 509.506C436.716 510.43 442.487 512.271 448.175 513.792C435.024 522.387 431.384 535.295 428.241 549.853C425.879 550.683 422.753 548.922 420.548 548.048C416.96 546.625 413.786 544.425 412.341 540.699C410.489 535.923 411.874 530.253 413.868 525.72C417.26 518.007 423.053 512.522 430.899 509.506Z"
    id="path52"
  />
  <path
    fill="#FAF8EC"
    d="M314.51 738.644C319.738 737.984 325.588 737.923 330.269 740.655C332.568 741.996 334.5 744.016 335.132 746.661C335.66 748.876 335.118 751.087 333.85 752.947C330.856 757.337 325.236 758.939 320.291 759.865C315.195 760.214 310.481 760.346 305.8 757.862C303.253 756.511 300.889 754.324 300.187 751.43C299.655 749.238 300.195 746.958 301.461 745.114C304.447 740.769 309.654 739.545 314.51 738.644Z"
    id="path53"
  />
  <path
    fill="#FAF8EC"
    d="M446.629 804.638C451.489 804.324 456.54 803.89 461.05 806.124C463.466 807.321 465.463 809.246 466.296 811.856C467.075 814.298 466.685 816.85 465.391 819.037C462.694 823.596 457.388 824.999 452.595 826.156C447.392 826.82 441.439 826.308 436.912 823.462C434.624 822.023 432.815 819.926 432.24 817.235C431.761 814.99 432.352 812.669 433.66 810.809C436.594 806.636 441.911 805.459 446.629 804.638Z"
    id="path54"
  />
  <path
    fill="#FAF8EC"
    d="M411.059 788.143C415.86 787.587 421.432 787.743 425.812 789.939C428.161 791.116 430.198 792.949 430.935 795.546C431.618 797.954 431.06 800.551 429.76 802.65C426.935 807.213 421.729 808.888 416.775 809.92C412.02 810.23 407.436 810.028 403.112 807.756C400.393 806.328 397.928 804.069 397.152 800.999C396.571 798.699 397.168 796.363 398.496 794.436C401.331 790.322 406.41 788.943 411.059 788.143Z"
    id="path55"
  />
  <path
    fill="#FAF8EC"
    d="M348.568 755.181C352.83 754.787 358.08 755.203 361.751 757.52C363.874 758.86 365.546 760.95 366.006 763.457C366.467 765.967 365.642 768.385 364.087 770.359C360.531 774.874 354.693 776.144 349.281 776.632C344.438 776.584 339.574 776.317 335.362 773.599C333.32 772.282 331.605 770.36 331.138 767.915C330.71 765.669 331.441 763.474 332.813 761.69C336.448 756.96 343.018 755.846 348.568 755.181Z"
    id="path56"
  />
  <path
    fill="#FAF8EC"
    d="M382.269 770.714C386.257 770.661 390.577 771.079 393.878 773.536C395.717 774.904 396.958 776.876 397.161 779.182C397.399 781.884 396.249 784.409 394.496 786.409C390.309 791.182 383.919 792.252 377.92 792.571C373.857 792.091 369.489 791.014 366.071 788.668C364.177 787.367 362.604 785.559 362.268 783.216C361.954 781.031 362.846 778.847 364.218 777.18C368.534 771.934 375.965 771.17 382.269 770.714Z"
    id="path57"
  />
  <path
    fill="#FAF8EC"
    d="M282.254 724.087C286.8 723.704 291.846 723.719 295.98 725.881C298.309 727.1 300.327 729.06 300.956 731.684C301.513 734.007 300.914 736.395 299.586 738.347C296.563 742.791 291.476 744.086 286.517 744.984C281.904 745.234 277.077 744.881 272.911 742.703C270.507 741.447 268.231 739.537 267.453 736.839C266.888 734.881 267.346 732.894 268.441 731.212C271.332 726.774 277.339 725.068 282.254 724.087Z"
    id="path58"
  />
  <path
    fill="#FAF8EC"
    d="M454.79 516.035C459.043 515.426 464.678 517.972 468.563 519.709C463.761 526.948 457.222 533.166 454.149 541.422C450.846 542.309 447.594 543.434 444.339 544.484L434.052 547.9C434.59 544.366 435.415 540.774 436.573 537.391C439.87 527.756 445.57 520.525 454.79 516.035Z"
    id="path59"
  />
  <path
    fill="#FAF8EC"
    d="M475.674 568.875C477.388 570.943 477.398 576.772 478.032 579.605C478.749 582.804 480.068 586.037 481.213 589.102C489.102 610.203 502.61 630.647 519.27 645.811C524.722 650.774 531.073 654.695 536.426 659.729L536.834 660.12C536.005 660.19 534.935 660.352 534.115 660.123C531.239 659.321 528.09 656.27 525.757 654.449C514.458 645.637 504.523 636.682 496.055 624.977C486.41 611.645 472.922 585.927 475.674 568.875Z"
    id="path60"
  />
  <path
    fill="#FAF8EC"
    d="M805.552 680.283C810.757 681.727 826.659 688.482 830.438 691.788C831.702 692.893 831.836 693.772 831.909 695.39C831.129 696.866 830.627 697.023 829.225 697.859C823.596 698.132 808.249 693.531 804.196 689.665C803.014 688.537 802.32 687.25 802.317 685.58C802.313 683.299 804.019 681.715 805.552 680.283Z"
    id="path61"
  />
  <path
    fill="#FAF8EC"
    d="M797.039 672.005C798.251 672.144 799.602 672.498 800.692 673.065C801.78 673.63 802.173 674.059 802.509 675.21C798.726 679.791 796.624 683.213 797.955 689.29C798.269 690.721 798.706 692.011 798.482 693.497C797.519 694.972 796.477 695.457 794.926 696.232C794.042 696.115 793.15 695.999 792.281 695.798C790.612 695.413 789.304 694.616 788.408 693.131C786.795 690.458 787.104 687.162 787.914 684.281C789.387 679.044 792.241 674.637 797.039 672.005Z"
    id="path62"
  />
  <path
    fill="#FAF8EC"
    d="M716.068 616.551C722.886 620.95 731.438 623.302 738.847 626.661C737.742 628.364 736.452 629.96 735.224 631.577C727.498 628.072 719.532 624.801 711.53 621.979C712.912 619.945 714.338 618.29 716.068 616.551Z"
    id="path63"
  />
  <path
    fill="#FAF8EC"
    d="M555.374 602.017C556.364 602.471 556.942 602.858 557.694 603.648C556.969 609.666 555.515 615.579 554.665 621.583C552.908 634.579 551.493 647.619 550.423 660.69C549.808 660.754 549.391 660.539 548.815 660.343C547.036 654.673 553.577 610.739 555.374 602.017Z"
    id="path64"
  />
  <path
    fill="#FAF8EC"
    d="M570.091 608.103C570.571 608.332 570.877 608.639 571.272 608.989C571.591 614.873 562.478 652.141 560.636 660.242L559.898 659.845C558.861 652.655 567.646 617.248 570.091 608.103Z"
    id="path65"
  />
  <path
    fill="#FAF8EC"
    d="M562.801 604.111L565.16 604.751C566.103 607.341 558.029 638.559 557.23 644.711L556.828 646.289C555.451 642.942 561.662 609.944 562.801 604.111Z"
    id="path66"
  />
  <path
    fill="#FAF8EC"
    d="M534.342 533.855C536.763 534.178 537.671 535.39 539.277 537.085C536.999 537.669 534.67 538.242 532.626 539.446C527.774 542.303 525.75 546.37 524.399 551.618C524.23 552.799 524.148 553.612 523.507 554.647C522.313 553.135 522.198 550.462 521.839 548.56C525.21 542.235 528.55 538.089 534.342 533.855Z"
    id="path67"
  />
  <path
    fill="#FAF8EC"
    d="M714.209 606.892C715.224 606.993 715.5 607.227 716.33 607.775C716.769 610.06 710.08 614.336 708.504 616.5C706.919 618.675 706.359 620.78 705.789 623.353L705.418 623.869L704.744 623.213C703.892 620.099 703.978 617.488 705.181 614.437C706.841 610.231 710.341 608.579 714.209 606.892Z"
    id="path68"
  />
  <path
    fill="#FAF8EC"
    d="M577.073 608.321L577.703 609.149C575.389 620.352 572.67 631.47 570.4 642.685C569.267 648.281 568.933 654.854 566.883 660.157C566.563 659.73 566.448 659.701 566.369 659.211C565.859 656.045 575.343 611.063 577.073 608.321Z"
    id="path69"
  />
  <path
    fill="#FAF8EC"
    d="M401.787 776.661C405.872 778.724 410.276 780.077 414.326 782.221L413.376 782.655C409.444 783.206 405.676 784.29 401.896 785.468C402.22 782.364 402.298 779.754 401.787 776.661Z"
    id="path70"
  />
  <path
    fill="#FAF8EC"
    d="M436.065 793.638C437.602 794.299 439.095 795.096 440.589 795.851C442.155 796.642 445.098 797.795 445.676 799.55L444.384 799.93C441.76 800.578 439.23 801.641 436.7 802.586C436.602 799.578 436.4 796.629 436.065 793.638Z"
    id="path71"
  />
  <path
    fill="#FAF8EC"
    d="M370.735 760.439C374.058 761.937 377.572 763.315 380.675 765.225L380.317 765.695C377.444 766.197 374.598 766.899 371.752 767.533C371.536 765.159 371.103 762.794 370.735 760.439Z"
    id="path72"
  />
  <path
    fill="#FAF8EC"
    d="M706.521 604.06L706.758 604.52C705.914 605.193 705.071 605.887 704.265 606.606C699.937 610.468 698.642 616.558 698.297 622.108C698.119 621.842 697.908 621.595 697.761 621.311C696.759 619.375 697.182 614.834 697.896 612.845C699.539 608.265 702.309 606.057 706.521 604.06Z"
    id="path73"
  />
  <path
    fill="#FAF8EC"
    d="M306.201 728.886C308.696 729.981 312.936 731.218 314.813 733.161L313.888 733.536C311.385 734.006 308.97 734.754 306.532 735.479C306.568 733.253 306.403 731.099 306.201 728.886Z"
    id="path74"
  />
  <path
    fill="#FAF8EC"
    d="M340.294 745.676C342.785 746.811 345.246 747.95 347.656 749.253L347.324 749.773L340.623 751.523L340.294 745.676Z"
    id="path75"
  />
  <path
    fill="#DFB6AA"
    d="M560.037 597.174C561.971 597.206 563.923 597.079 565.853 597.19C567.068 597.26 568.134 597.181 568.982 598.114L567.825 599.355C564.837 598.979 561.848 598.618 558.856 598.272L558.579 597.857L560.037 597.174Z"
    id="path76"
  />
  <path
    fill="#FAF8EC"
    d="M539.852 543.396L540.286 544.029C538.788 547.206 537.453 550.43 536.14 553.687L535.669 553.501L535.329 552.263C535.95 548.81 537.781 546.133 539.852 543.396Z"
    id="path77"
  />
  <path
    fill="#FAF8EC"
    d="M280.589 716.422C280.919 716.494 281.379 716.827 281.679 716.997L281.44 717.92C280.125 719.467 275.377 720.317 273.256 720.949L272.953 720.932L272.871 720.536C275.258 718.855 277.967 717.69 280.589 716.422Z"
    id="path78"
  />
  <path
    fill="#FAF8EC"
    d="M532.235 545.952C532.356 547.956 530.36 555.332 529.785 557.666C529.557 557.02 529.456 556.778 529.283 556.1C528.419 552.72 530.516 548.718 532.235 545.952Z"
    id="path79"
  />
  <path
    style="font-weight: 900; font-size: 192px; line-height: 1.5; font-family: 'Noto Serif CJK KR'; -inkscape-font-specification: 'Noto Serif CJK KR Heavy'; text-align: center; text-anchor: middle; fill: #3c1110; fill-rule: evenodd"
    d="m 434.33601,184.82033 v 29.952 c -6.72,-6.72 -17.088,-15.936 -17.088,-15.936 l -10.368,15.168 h -16.32 v -19.392 c 10.176,-0.96 19.584,-2.112 27.456,-3.456 6.72,2.688 11.328,2.496 13.824,0.576 l -25.344,-25.344 c -18.048,9.6 -53.76,21.504 -82.56,27.264 l 0.192,2.304 c 13.44,0.576 27.648,0.576 41.664,0.192 v 17.856 h -40.128 l 1.536,5.376 h 8.64 v 30.336 h -14.016 l 1.536,5.376 h 12.48 v 33.792 h -10.56 l 1.536,5.376 h 38.976 v 18.816 c -17.472,1.92 -31.872,3.456 -40.512,4.032 l 12.288,29.568 c 2.304,-0.576 4.416,-2.304 5.76,-4.8 42.816,-14.592 70.848,-25.536 89.088,-34.368 l -0.192,-2.304 -41.664,5.184 v -16.128 h 43.776 v 54.72 h 4.8 c 13.248,0 21.12,-6.144 21.12,-8.064 v -41.472 c 3.456,1.344 5.76,3.264 6.912,5.376 1.728,3.456 2.688,14.4 2.688,22.272 23.616,0 31.296,-13.632 31.296,-33.216 0,-16.704 -9.792,-38.016 -30.912,-50.304 11.328,-13.056 24.192,-33.216 31.488,-45.888 4.608,0 7.104,-0.768 8.64,-2.88 l -25.728,-23.04 -13.44,13.056 h -8.256 l -28.608,-13.056 z m -77.376,34.56 h 8.832 v 30.336 h -8.832 z m 43.008,0 v 30.336 h -9.408 v -30.336 z m 21.312,0 h 9.408 c 1.536,0 2.88,-0.384 3.648,-1.152 v 27.072 l -8.64,-8.64 -4.416,6.912 z m -64.32,69.504 v -33.792 h 8.832 v 33.792 z m 64.32,-4.992 v -28.8 h 13.056 v 28.608 l -7.872,-8.256 z m -21.312,4.992 h -9.408 v -33.792 h 9.408 z m 73.152,-98.688 c -1.344,16.128 -4.992,40.32 -7.872,53.952 8.064,12.288 10.752,28.416 10.752,41.664 0,5.376 -1.344,8.448 -3.648,9.984 -1.152,0.768 -2.304,0.96 -4.032,0.96 h -8.064 v -106.56 z m 156.48,109.824 -1.344,1.344 c 11.904,9.792 27.264,25.728 34.944,39.744 27.84,11.52 38.976,-40.128 -33.6,-41.088 z m -76.416,-5.184 c -6.72,14.784 -21.888,34.176 -39.168,45.696 l 1.344,2.112 c 24.384,-4.8 46.848,-15.552 60.672,-28.032 4.416,0.576 6.336,-0.576 7.296,-2.304 z m -14.592,-30.72 1.536,5.376 h 125.568 c 2.88,0 4.992,-0.96 5.376,-3.072 -4.608,-3.84 -10.56,-8.64 -15.36,-12.288 9.024,-0.192 22.08,-5.184 22.272,-6.72 v -33.6 c 4.032,-0.768 6.336,-2.688 7.488,-4.224 l -25.152,-18.816 -12.096,13.248 h -11.712 v -19.392 h 52.416 c 2.88,0 4.992,-0.96 5.568,-3.072 -9.792,-7.488 -25.344,-18.048 -25.344,-18.048 l -13.632,15.744 h -136.896 l 1.536,5.376 h 54.144 v 19.392 h -10.176 l -29.376,-10.944 v 67.776 h 3.84 c 11.136,0 23.424,-5.76 23.424,-8.256 v -6.528 h 88.128 v 3.84 l -2.304,-1.728 -12.672,15.936 z m 59.328,-79.488 h 14.592 v 19.392 h -14.592 z m -23.616,56.064 h -12.288 v -31.296 h 12.288 z m 23.616,0 v -31.296 h 14.592 v 31.296 z m 38.592,0 v -31.296 h 13.632 v 31.296 z m -117.888,47.808 1.536,5.376 h 71.424 v 26.304 c 0,1.728 -0.768,2.88 -3.456,2.88 -4.032,0 -21.696,-0.96 -21.696,-0.96 v 2.112 c 9.984,1.728 13.248,4.608 15.936,7.872 2.88,3.648 3.456,9.216 4.032,17.088 29.376,-1.92 33.6,-11.52 33.6,-28.608 v -26.688 h 68.544 c 2.688,0 4.992,-0.96 5.568,-3.072 -9.792,-8.064 -25.536,-19.584 -25.536,-19.584 l -14.016,17.28 z"
    id="text79"
    aria-label=""
    inkscape:label="upyo-han"
  />
  <path
    style="font-weight: 500; font-size: 48px; line-height: 1.5; font-family: 'Noto Sans'; -inkscape-font-specification: 'Noto Sans Medium'; text-align: center; letter-spacing: 15px; text-anchor: middle; fill: #3c1110; fill-rule: evenodd"
    d="m 455.228,410.26865 q 0,3.552 -1.488,6.432 -1.488,2.832 -4.512,4.512 -2.976,1.632 -7.584,1.632 -6.528,0 -9.936,-3.456 -3.36,-3.504 -3.36,-9.216 v -22.08 h 5.184 v 21.84 q 0,8.496 8.352,8.496 4.32,0 6.24,-2.304 1.968,-2.304 1.968,-6.24 v -21.792 h 5.136 z m 33.33605,-22.176 q 6.672,0 9.744,2.688 3.12,2.688 3.12,7.536 0,2.88 -1.296,5.424 -1.248,2.496 -4.224,4.08 -2.928,1.536 -8.016,1.536 h -3.696 v 13.008 h -5.232 v -34.272 z m -0.336,4.368 h -4.032 v 12.528 h 3.168 q 4.32,0 6.528,-1.44 2.208,-1.488 2.208,-5.04 0,-2.976 -1.92,-4.512 -1.872,-1.536 -5.952,-1.536 z m 44.56803,11.76 8.352,-16.128 h 5.664 l -11.424,20.976 v 13.296 h -5.232 v -13.104 l -11.376,-21.168 h 5.664 z m 62.85596,0.96 q 0,5.328 -1.824,9.312 -1.776,3.936 -5.328,6.144 -3.552,2.208 -8.832,2.208 -5.424,0 -8.976,-2.208 -3.504,-2.208 -5.28,-6.192 -1.728,-3.984 -1.728,-9.312 0,-5.28 1.728,-9.216 1.776,-3.936 5.328,-6.144 3.552,-2.208 8.976,-2.208 5.28,0 8.784,2.208 3.552,2.16 5.328,6.144 1.824,3.936 1.824,9.264 z m -26.448,0 q 0,6.144 2.496,9.696 2.544,3.504 7.968,3.504 5.472,0 7.968,-3.504 2.496,-3.552 2.496,-9.696 0,-6.144 -2.496,-9.648 -2.496,-3.504 -7.92,-3.504 -5.472,0 -8.016,3.504 -2.496,3.504 -2.496,9.648 z"
    id="text80"
    aria-label="UPYO"
    inkscape:label="upyo-latin"
  />
</svg>
